<svg width="200" height="65" viewBox="0 0 200 65" fill="none" xmlns="http://www.w3.org/2000/svg">
<g clip-path="url(#clip0_1_45)">
<mask id="mask0_1_45" style="mask-type:luminance" maskUnits="userSpaceOnUse" x="0" y="0" width="200" height="65">
<path d="M200 0H0V65H200V0Z" fill="white"/>
</mask>
<g mask="url(#mask0_1_45)">
<path d="M200 0H0V65H200V0Z" fill="#2CB1BC"/>
<path d="M0 32.5V65H100H200V32.5V0H100H0V32.5ZM31.8356 12.1032C33.3857 12.3931 34.7474 13.1416 35.8393 14.3081C39.4289 18.1379 38.4687 24.6245 33.9504 27.0721C33.3166 27.4092 32.4067 27.7329 31.754 27.8475C31.4967 27.8879 31.2206 27.9419 31.1453 27.9554L31.0009 27.9823V33.8148V39.6406L31.3021 39.681C32.6075 39.8698 33.963 40.5306 34.8164 41.4005L35.0862 41.6701L35.262 41.5218C35.3624 41.4341 35.9712 40.8946 36.6238 40.3216C37.2764 39.7485 37.9353 39.1619 38.0922 39.0203L38.3809 38.7707L38.0734 38.4134C37.0881 37.2738 36.4732 35.9928 36.1656 34.4554C36.0213 33.7002 36.0213 32.0752 36.1719 31.3672C36.7305 28.6904 38.337 26.5799 40.5648 25.5887C43.3322 24.3615 46.4763 24.9819 48.5848 27.1867C49.6266 28.2791 50.3232 29.5736 50.6433 31.0369C51.4967 34.9072 49.6831 38.737 46.2567 40.2879C45.102 40.8138 43.5707 41.0498 42.4851 40.8678C41.4873 40.6992 40.3264 40.2272 39.4792 39.6473C39.2093 39.4585 38.9708 39.3102 38.9458 39.3102C38.9206 39.3102 38.7386 39.4518 38.5379 39.6271C38.337 39.8091 37.6404 40.4227 36.9878 40.9958C36.3414 41.569 35.7515 42.0882 35.6825 42.1488C35.5633 42.25 35.5633 42.2635 35.764 42.5736C36.0904 43.0861 36.5108 44.0908 36.6489 44.7043C37.0693 46.5721 36.7493 48.4534 35.7327 50.1053C35.4126 50.6313 34.5404 51.5483 34.032 51.8988C31.6097 53.5643 28.497 53.2879 26.4449 51.2246C25.353 50.1255 24.7631 48.9591 24.5059 47.4014C24.2422 45.7764 24.6313 43.875 25.5036 42.5466C25.6166 42.3782 25.7233 42.2095 25.7484 42.1691C25.786 42.1016 25.0204 41.3937 22.9996 39.6271L22.5039 39.1888L22.1211 39.4787C21.4058 40.0249 20.4895 40.4564 19.454 40.7329C18.952 40.8611 18.6947 40.8879 17.8538 40.8879C16.9501 40.8946 16.7869 40.8745 16.2284 40.7059C13.6429 39.9372 11.754 38.11 10.9319 35.5882C10.2541 33.5249 10.3734 31.3874 11.2582 29.4321C13.1722 25.2246 18.0295 23.6872 21.7446 26.1214C24.5811 27.9689 25.9241 31.556 25.0706 34.9948C24.7819 36.1545 23.9599 37.7189 23.2883 38.3931C23.1816 38.5078 23.0939 38.6157 23.0939 38.6427C23.0939 38.6696 23.4954 39.0472 23.9913 39.4854C24.4807 39.9238 25.1961 40.5643 25.5852 40.9082L26.2881 41.5352L26.5767 41.2656C27.4804 40.4295 28.6601 39.8698 29.9529 39.681L30.2479 39.6406V33.8148V27.9891L29.9529 27.9486C29.0807 27.8273 28.0515 27.4834 27.2357 27.0384C24.7819 25.7034 23.2193 22.9523 23.2193 19.9585C23.2193 16.0882 25.7922 12.8045 29.363 12.11C30.0094 11.9819 31.1767 11.9819 31.8356 12.1032ZM63.8845 28.8387C63.8845 34.9409 63.8532 35.4331 63.3762 36.512C62.8428 37.7323 61.3367 38.7775 60.0941 38.7842C59.385 38.7909 58.2931 38.4404 57.2451 37.8672C56.7681 37.6043 56.3038 37.2604 56.2535 37.1255C56.2284 37.0446 57.176 34.6577 57.2953 34.5025C57.3204 34.4756 57.4961 34.5565 57.6969 34.6847C58.2178 35.0218 59.1026 35.4129 59.4289 35.4466C59.6736 35.4735 59.749 35.4534 59.9059 35.3117C60.3264 34.9341 60.3702 34.2801 60.3702 28.4678V23.8693H62.1274H63.8845V28.8387ZM74.5274 26.3978C77.0822 34.6779 78.1296 38.1235 78.1296 38.2043C78.1296 38.2852 77.8415 38.2988 76.4104 38.2988C74.823 38.2988 74.6844 38.292 74.6533 38.1774C74.5904 37.9481 74.0508 35.7972 74.0508 35.7635C74.0508 35.75 72.9338 35.7433 71.5658 35.75L69.0743 35.7703L68.748 37.0177L68.428 38.265L66.6897 38.2852C65.4346 38.2988 64.9513 38.2785 64.9513 38.2246C64.9513 38.1639 69.1811 24.3615 69.3191 23.9839C69.3567 23.876 69.5261 23.8693 71.5595 23.8828L73.7621 23.903L74.5274 26.3978ZM85.2341 23.9435C86.3822 24.0716 87.1289 24.4222 87.7941 25.1437C88.2526 25.6427 88.5281 26.1551 88.7481 26.9035C88.8733 27.3418 88.8926 27.5441 88.8926 28.4207C88.8859 29.3376 88.8733 29.4793 88.7237 29.9378C88.497 30.6322 88.2956 30.9829 87.8756 31.4414C87.5059 31.8392 86.7333 32.3112 86.3007 32.4056C86.1874 32.4326 86.1 32.4595 86.1 32.4797C86.1 32.5067 86.9978 34.0104 88.8607 37.0985C89.2252 37.6986 89.5326 38.2111 89.5385 38.2448C89.5518 38.2718 88.6726 38.2988 87.5867 38.2988H85.6104L85.4852 38.0762C85.4215 37.9616 84.7637 36.7007 84.0222 35.278L82.68 32.6888L82.6607 35.4937L82.6481 38.2988H81.017H79.3852V31.0841V23.8693H81.9896C83.4267 23.8693 84.8756 23.903 85.2341 23.9435ZM93.3289 25.1976C93.5548 25.9326 94.1133 27.6992 94.5718 29.1286C95.0304 30.5581 95.5067 32.1764 95.6385 32.7361C95.8393 33.5788 95.8837 33.7137 95.9207 33.5451C96.1659 32.4393 96.3919 31.6437 97.2133 29.0545C97.7341 27.4092 98.3185 25.5685 98.5067 24.9616L98.8518 23.8693H100.702H102.554L102.516 24.0177C102.498 24.1053 101.299 27.3418 99.8489 31.2189L97.2133 38.265L95.877 38.2852L94.54 38.2988L94.4081 37.9481C94.3333 37.7525 93.1407 34.5431 91.7474 30.8143C90.3607 27.0856 89.2059 23.9975 89.1933 23.9502C89.1681 23.8896 89.5644 23.8693 91.0385 23.8693H92.9081L93.3289 25.1976ZM151.804 26.8361C152.481 26.917 153.26 27.1463 153.781 27.4227C154.835 27.9891 155.727 29.0275 156.166 30.1872L156.317 30.5784L155.055 30.5985C154.082 30.612 153.781 30.5918 153.744 30.5312C153.322 29.8097 152.884 29.3984 152.256 29.1421C151.698 28.9196 150.725 28.9062 150.128 29.1151C149.124 29.4591 148.409 30.2951 148.07 31.4886C147.913 32.0483 147.881 33.1676 148.001 33.7812C148.221 34.8937 148.873 35.8646 149.676 36.2962C150.135 36.5389 150.964 36.7007 151.459 36.64C152.426 36.5322 153.285 35.9658 153.656 35.2038L153.756 34.9948H155.036H156.322L156.253 35.1769C155.663 36.8693 154.408 38.0965 152.764 38.5819C152.35 38.7101 152.106 38.7303 151.177 38.7303C150.153 38.7303 150.041 38.7168 149.513 38.5415C147.713 37.9549 146.413 36.5591 145.867 34.624C145.704 34.0576 145.692 33.9362 145.692 32.8034C145.692 31.6773 145.704 31.5493 145.861 30.9964C146.451 28.9398 147.819 27.5104 149.676 26.9979C150.009 26.9035 150.505 26.8293 151.058 26.7755C151.114 26.7755 151.453 26.8023 151.804 26.8361ZM178.682 26.9642C179.335 27.1463 179.868 27.4632 180.301 27.9149C180.803 28.4409 181.004 28.8994 181.211 29.985L181.236 30.14H180.025H178.807L178.726 29.8501C178.538 29.1758 178.099 28.8522 177.314 28.805C176.731 28.7713 176.436 28.8522 176.141 29.1151C175.889 29.3444 175.777 29.6411 175.777 30.0726C175.777 30.929 176.196 31.2458 178.331 31.9606C179.499 32.3584 180.094 32.6821 180.553 33.1743C180.992 33.6463 181.205 34.098 181.299 34.7723C181.493 36.1208 180.873 37.5032 179.755 38.2043C178.569 38.9528 176.548 38.9865 175.224 38.2785C174.515 37.901 174.007 37.3615 173.706 36.667C173.53 36.2557 173.361 35.4398 173.429 35.3252C173.448 35.2915 173.976 35.2646 174.604 35.2646H175.745L175.859 35.6893C175.996 36.1883 176.354 36.5996 176.761 36.7344C177.113 36.849 177.835 36.8356 178.18 36.7075C178.481 36.5996 178.87 36.2018 178.978 35.8984C179.078 35.6286 179.046 35.1904 178.921 34.8802C178.707 34.3879 178.356 34.179 176.844 33.6463C175.149 33.0529 174.685 32.8169 174.214 32.3179C173.674 31.7313 173.455 31.1178 173.455 30.2075C173.455 28.6971 174.277 27.5238 175.676 27.0384C176.524 26.7418 177.779 26.7148 178.682 26.9642ZM130.53 30.5244C131.196 32.5203 132.074 35.1499 132.481 36.3771C132.89 37.5975 133.228 38.6225 133.228 38.6494C133.228 38.6831 132.707 38.7034 132.074 38.7034H130.919L130.561 37.5908L130.198 36.4782L128.027 36.4918L125.855 36.512L125.51 37.5908L125.165 38.6696L124.01 38.6898L122.861 38.7034L122.893 38.555C122.906 38.4673 123.05 38.0223 123.207 37.5571C123.358 37.0918 124.211 34.5565 125.089 31.9269C125.968 29.2905 126.715 27.0856 126.733 27.0181C126.772 26.917 126.897 26.9035 128.045 26.9035H129.319L130.53 30.5244ZM137.151 27.3418C137.289 27.5643 138.393 29.3512 139.599 31.3133L141.795 34.887L141.813 30.8953L141.826 26.9035H142.924H144.022V32.8034V38.7034H142.931H141.839L139.404 34.7453L136.962 30.7874L136.932 34.7319L136.9 38.6696L135.789 38.6898L134.673 38.7034V32.8506C134.673 29.6275 134.691 26.9709 134.716 26.944C134.741 26.9238 135.237 26.9102 135.827 26.917L136.893 26.9372L137.151 27.3418ZM189.57 27.8946L189.589 28.8589H187.512H185.441V30.3086V31.7582H187.261H189.081V32.7023V33.6463H187.261H185.441V35.1971V36.7479H187.512H189.589L189.57 37.7054L189.552 38.6696H186.382H183.213L183.194 32.8708C183.188 29.6815 183.194 27.0317 183.213 26.9844C183.232 26.917 183.903 26.9035 186.395 26.917L189.552 26.9372L189.57 27.8946ZM111.955 27.9149V28.8589H109.696H107.436V30.3423V31.8257L109.181 31.8392L110.919 31.8594L110.939 32.7832L110.956 33.7137H109.193H107.436V36.2085V38.7034H106.339H105.24V32.8371V26.9709H108.598H111.955V27.9149ZM118.782 27.0788C119.724 27.2812 120.69 27.9621 121.086 28.6904C121.833 30.0457 121.638 31.9269 120.647 32.9787C120.258 33.39 119.962 33.599 119.473 33.7879C119.272 33.8687 119.109 33.9497 119.109 33.9632C119.109 33.9766 119.655 34.9813 120.32 36.195C120.992 37.4087 121.569 38.4673 121.613 38.5483L121.688 38.7034H120.407H119.134L117.935 36.4243L116.736 34.152L116.228 34.1317L115.72 34.1115V36.4108V38.7034H114.621H113.523V32.8371V26.9709H115.908C117.835 26.9709 118.393 26.9911 118.782 27.0788ZM160.401 29.3646V31.7582H162.693H164.982V29.3646V26.9709H166.113H167.241V32.8371V38.7034L166.131 38.6898L165.014 38.6696L164.995 36.1883L164.982 33.7137H162.693H160.401L160.389 36.1883L160.37 38.6696L159.259 38.6898L158.142 38.7034V32.8371V26.9709H159.272H160.401V29.3646ZM171.572 32.8371V38.7034H170.474H169.376V32.8371V26.9709H170.474H171.572V32.8371ZM47.5432 44.0032C47.6373 44.2525 47.6121 44.3942 47.4239 44.6168C47.0913 45.0146 46.4512 44.5695 46.6081 44.0503C46.7461 43.5918 47.3674 43.5581 47.5432 44.0032ZM59.7301 43.848C59.9247 44.0369 59.9184 44.3874 59.7113 44.6032C59.2784 45.0685 58.6131 44.4481 58.9646 43.9087C59.1591 43.6053 59.454 43.5784 59.7301 43.848ZM75.4437 43.8076C75.6007 43.9626 75.6452 44.2593 75.5319 44.4886C75.243 45.0887 74.4207 44.6639 74.6281 44.0234C74.7415 43.6659 75.1681 43.5514 75.4437 43.8076ZM109.57 43.9626C109.57 44.1784 109.539 44.3133 109.495 44.3268C109.451 44.3402 109.3 44.3807 109.162 44.4077C108.861 44.4819 108.692 44.7718 108.692 45.2235V45.5135H109.162H109.633V45.8506V46.1878H109.162H108.692V48.278V50.3683H108.315H107.939V48.278V46.1878H107.619H107.305L107.323 45.8641L107.342 45.5472L107.631 45.527L107.92 45.5067L107.951 45.0078C107.976 44.61 108.02 44.4481 108.152 44.2323C108.372 43.875 108.824 43.6592 109.401 43.6322C109.564 43.6255 109.57 43.6389 109.57 43.9626ZM135.274 44.0032C135.368 44.2525 135.344 44.3942 135.155 44.6168C134.973 44.8325 134.704 44.819 134.478 44.5762C134.378 44.4683 134.296 44.3335 134.296 44.2728C134.296 43.6592 135.061 43.4435 135.274 44.0032ZM178.174 43.8076C178.331 43.9626 178.375 44.2593 178.261 44.4886C177.973 45.0887 177.151 44.6639 177.359 44.0234C177.471 43.6659 177.898 43.5514 178.174 43.8076ZM61.7508 45.0887V46.3496L62.0207 46.0731C62.4286 45.6349 62.8052 45.4797 63.4453 45.4797C63.9033 45.4797 64.0288 45.5067 64.3363 45.6686C64.7819 45.9045 65.2149 46.4102 65.3781 46.8822C65.7421 47.9341 65.5224 49.1613 64.8509 49.8288C64.3991 50.2738 64.0791 50.402 63.4139 50.402C62.7424 50.402 62.4098 50.2671 62.0081 49.8356L61.7508 49.5591V49.9637V50.3683H61.3744H60.9978V47.098V43.8278H61.3744H61.7508V45.0887ZM104.361 47.098V50.3683H103.985H103.608V49.9502V49.5322L103.345 49.8221C102.936 50.2738 102.623 50.402 101.945 50.402C101.28 50.402 100.96 50.2738 100.515 49.8356C99.6422 48.9725 99.5733 47.152 100.382 46.1945C100.998 45.4595 101.971 45.2505 102.83 45.6753C103.025 45.7696 103.276 45.9652 103.395 46.1001L103.608 46.3496V45.0887V43.8278H103.985H104.361V47.098ZM129.966 44.9808V46.1339L130.229 45.8911C130.901 45.2707 132.106 45.3179 132.727 45.9854C133.173 46.4642 133.228 46.7609 133.228 48.6826V50.3683H132.853H132.476V48.7972C132.469 47.1655 132.432 46.8755 132.181 46.5788C131.873 46.2148 131.177 46.0731 130.706 46.2889C130.38 46.4305 130.116 46.7946 130.034 47.1992C129.997 47.388 129.966 48.1769 129.966 48.9523V50.3683H129.589H129.213V47.098V43.8278H129.589H129.966V44.9808ZM43.4641 44.2931C44.6564 44.5358 45.4722 45.3854 45.6856 46.5923C45.9366 48.0082 45.4095 49.3906 44.4054 49.9435C43.7904 50.2806 43.5896 50.3143 42.2215 50.348L40.9162 50.3817V47.3071V44.2323H42.0395C42.6545 44.2323 43.2947 44.2593 43.4641 44.2931ZM53.8939 44.9201L53.9127 45.5067L54.4901 45.527L55.0675 45.5472L55.0862 45.8641L55.1051 46.1878H54.5089H53.9065V47.7589C53.9065 49.0063 53.9253 49.3569 53.9943 49.4648C54.0634 49.5659 54.1826 49.5996 54.578 49.6265L55.0675 49.6602V49.9975V50.3345H54.4713C53.8124 50.3345 53.5676 50.2334 53.3166 49.876C53.1911 49.694 53.1848 49.5793 53.1534 47.9543L53.1221 46.2215L52.8208 46.2012L52.5196 46.181L52.5384 45.8641L52.5573 45.5472L52.8585 45.527L53.1534 45.5067V44.8999V44.2931L53.5174 44.3133L53.8751 44.3335L53.8939 44.9201ZM72.6702 44.9067V45.5067L73.2538 45.527L73.8312 45.5472L73.85 45.8641L73.8688 46.1878H73.2664H72.6639L72.6827 47.806C72.6953 49.013 72.7204 49.4378 72.7832 49.5052C72.8271 49.5524 73.0781 49.6063 73.348 49.6265L73.8312 49.6602V49.9975V50.3345L73.3793 50.3547C72.6576 50.3885 72.1933 50.1862 72.0238 49.7681C71.9799 49.6602 71.936 48.9658 71.9172 47.9072L71.8858 46.2215L71.5908 46.2012L71.2896 46.181V45.8439V45.5135H71.6034H71.9172V44.9067V44.2998H72.2937H72.6702V44.9067ZM51.1327 45.6753C51.4716 45.8641 51.7101 46.1473 51.8293 46.5181C51.9611 46.9564 51.9422 46.9968 51.5407 46.9968C51.1767 46.9968 51.1767 46.9968 51.07 46.7272C50.9257 46.363 50.6433 46.1878 50.1852 46.1878C49.6203 46.1878 49.3254 46.4102 49.3254 46.8284C49.3254 47.1655 49.6015 47.3611 50.5178 47.6712C51.2645 47.9207 51.3964 47.988 51.6222 48.2376C51.9548 48.5882 52.0364 48.9928 51.8733 49.458C51.6599 50.0447 51.1704 50.3683 50.4173 50.4222C49.4321 50.4896 48.679 49.9907 48.4845 49.1343L48.4468 48.9523H48.8421C49.2313 48.9523 49.2439 48.9591 49.3317 49.1681C49.5827 49.7884 50.6056 49.9367 51.0386 49.4243C51.4214 48.9591 51.1641 48.6016 50.2353 48.3185C49.4948 48.0892 49.2375 47.9746 48.9739 47.7656C48.4218 47.3071 48.4468 46.2889 49.0179 45.8304C49.5513 45.4124 50.5114 45.3382 51.1327 45.6753ZM58.1613 45.8641L58.1424 46.2889L57.7973 46.3293C57.3455 46.3832 57.0881 46.5317 56.9061 46.8418C56.7681 47.0913 56.7618 47.152 56.743 48.7365L56.7241 50.375L56.3351 50.3547L55.946 50.3345V47.9409V45.5472L56.3414 45.527L56.7305 45.5067V45.8506V46.2012L56.8936 45.9854C57.1447 45.6753 57.5651 45.4663 57.973 45.4528L58.1801 45.4461L58.1613 45.8641ZM79.2467 45.5135C80.1822 45.7495 80.7911 46.4642 80.9474 47.5161C81.017 48.0082 80.9474 48.6286 80.7659 49.0669C80.4578 49.8154 79.68 50.3615 78.8393 50.4222C77.8726 50.4896 77.0881 50.0177 76.6741 49.1006C76.4793 48.6826 76.4667 48.6084 76.4667 47.9746C76.4733 47.1857 76.6052 46.7272 76.9756 46.2687C77.4963 45.6146 78.4126 45.3112 79.2467 45.5135ZM84.7756 45.554C85.2844 45.7158 85.6919 46.1541 85.8489 46.7069C85.9615 47.0913 85.9741 47.3341 85.9741 48.7567V50.3683H85.6044H85.2341L85.2081 48.7297C85.1904 47.1317 85.1837 47.0913 85.0333 46.7946C84.8193 46.3832 84.4867 46.1878 84.0044 46.1878C83.4822 46.1878 83.1378 46.3765 82.9118 46.7812L82.7422 47.098L82.7237 48.7297L82.7044 50.3683H82.3281H81.9578V47.9409V45.5135H82.3348H82.7111V45.8304V46.1473L82.9244 45.9248C83.3385 45.4933 84.1111 45.3382 84.7756 45.554ZM91.8289 45.5607C92.1059 45.6416 92.2874 45.7563 92.5385 46.0057L92.8778 46.3361V45.9248V45.5135H93.2541H93.6304V47.9409V50.3683H93.2541H92.8778V49.9502V49.5322L92.62 49.8086C92.2126 50.2536 91.8793 50.3953 91.2141 50.3953C90.5548 50.402 90.1793 50.2604 89.783 49.8423C88.8733 48.8984 88.8237 47.1453 89.6711 46.1676C90.2348 45.5135 90.9822 45.3045 91.8289 45.5607ZM97.8978 45.6282C98.2681 45.8034 98.5067 46.0731 98.7074 46.5249C98.8696 46.8889 98.8696 46.9227 98.8889 48.6286L98.9081 50.3683H98.5319H98.1615L98.1356 48.7297L98.1178 47.098L97.9474 46.7812C97.5022 45.972 96.26 45.9787 95.8267 46.8014C95.6756 47.0913 95.6696 47.1317 95.6511 48.7297L95.6326 50.3683H95.2556H94.8859V47.9409V45.5135H95.2615H95.6385V45.8304V46.1473L95.8459 45.9315C96.3096 45.4461 97.2393 45.3112 97.8978 45.6282ZM112.695 45.8641L112.677 46.2889L112.293 46.3293C111.854 46.3765 111.579 46.5519 111.402 46.8822C111.315 47.0643 111.29 47.3475 111.264 48.7163L111.233 50.3345L110.844 50.3547L110.448 50.375V47.9409V45.5067L110.844 45.527L111.233 45.5472L111.252 45.8708L111.271 46.1878L111.434 45.9854C111.679 45.6753 112.099 45.4663 112.507 45.4528L112.714 45.4461L112.695 45.8641ZM116.235 45.6349C116.385 45.7091 116.611 45.8775 116.749 46.0124C116.881 46.1473 117 46.2552 117.013 46.2552C117.025 46.2552 117.039 46.0866 117.039 45.8843V45.5135H117.414H117.791V47.9409V50.3683H117.414H117.039V49.9569V49.5457L116.774 49.8356C116.36 50.2738 116.047 50.402 115.375 50.402C114.886 50.402 114.766 50.375 114.453 50.2132C113.587 49.7547 113.104 48.6354 113.273 47.4823C113.361 46.9159 113.511 46.5451 113.806 46.1945C114.264 45.6484 114.785 45.4326 115.513 45.473C115.77 45.4933 116.078 45.5607 116.235 45.6349ZM122.059 45.6282C122.416 45.7966 122.73 46.1339 122.899 46.5249C123.019 46.8014 123.031 46.9699 123.05 48.5949L123.068 50.3683H122.693H122.316L122.296 48.7297C122.279 47.1317 122.272 47.0913 122.121 46.7946C121.701 45.9787 120.446 45.972 120 46.7812L119.831 47.098L119.812 48.7297L119.787 50.3683H119.417H119.046V47.9409V45.5135H119.422H119.799V45.8304V46.1473L120.013 45.9248C120.464 45.4528 121.406 45.3179 122.059 45.6282ZM127.236 45.7091C127.656 45.9315 127.951 46.262 128.114 46.6867C128.278 47.098 128.253 47.1317 127.832 47.1317C127.474 47.1317 127.455 47.125 127.355 46.9092C127.098 46.363 126.746 46.1608 126.106 46.2012C125.741 46.2215 125.604 46.262 125.391 46.4102C124.707 46.8957 124.556 48.4196 125.108 49.2085C125.654 49.9772 127.004 49.8626 127.33 49.0196C127.405 48.8242 127.424 48.8174 127.807 48.8174C128.259 48.8174 128.271 48.8376 128.089 49.2557C127.681 50.1929 126.527 50.6582 125.466 50.3143C124.468 49.9839 123.96 49.1006 124.017 47.7791C124.079 46.2687 124.958 45.3988 126.351 45.473C126.74 45.4933 126.921 45.5472 127.236 45.7091ZM138.864 45.6753C139.203 45.8641 139.441 46.1473 139.561 46.5181C139.693 46.9564 139.673 46.9968 139.272 46.9968C138.908 46.9968 138.908 46.9968 138.801 46.7272C138.656 46.363 138.375 46.1878 137.917 46.1878C137.376 46.1878 137.064 46.417 137.057 46.8148C137.057 47.1655 137.32 47.3543 138.249 47.6712C138.996 47.9207 139.127 47.988 139.353 48.2376C139.993 48.9253 139.642 50.0244 138.682 50.3278C137.584 50.6784 136.441 50.1457 136.241 49.1815L136.191 48.9523H136.58C136.962 48.9523 136.975 48.9591 137.076 49.1883C137.339 49.7884 138.287 49.9367 138.739 49.4512C139.153 49.0063 138.946 48.6354 138.136 48.3792C136.95 48.0015 136.593 47.7926 136.404 47.3678C136.179 46.8687 136.347 46.1541 136.756 45.8439C137.327 45.4056 138.236 45.3314 138.864 45.6753ZM143.683 45.7158C144.111 45.9383 144.449 46.3159 144.625 46.7609C144.764 47.1183 144.851 47.7251 144.801 48.0218L144.764 48.278H142.981H141.199L141.236 48.4601C141.387 49.1478 141.764 49.5591 142.353 49.694C142.968 49.8288 143.546 49.5793 143.803 49.0602C143.922 48.8242 143.928 48.8174 144.318 48.8174C144.55 48.8174 144.713 48.8444 144.713 48.8849C144.713 49.0602 144.387 49.6265 144.148 49.8558C143.715 50.2738 143.395 50.3953 142.673 50.3953C142.121 50.402 142.001 50.3817 141.694 50.2266C141.242 49.9975 140.853 49.5793 140.64 49.0939C140.496 48.7567 140.477 48.6354 140.477 47.9409C140.477 47.2464 140.496 47.125 140.64 46.7946C141.048 45.8573 141.763 45.4191 142.793 45.473C143.181 45.4933 143.363 45.5472 143.683 45.7158ZM150.649 45.5876C151.001 45.7023 151.133 45.7966 151.434 46.1136C151.735 46.444 151.816 46.5788 151.93 46.9766C152.018 47.2936 152.055 47.5835 152.042 47.8465L152.024 48.2443L150.254 48.2646L148.479 48.278V48.4331C148.484 48.6624 148.704 49.1343 148.899 49.3299C149.552 49.9772 150.7 49.8086 151.089 49.013C151.17 48.8309 151.208 48.8174 151.553 48.8174C151.986 48.8174 152.005 48.8646 151.804 49.2894C151.628 49.6602 151.264 50.0177 150.862 50.2266C150.561 50.3817 150.436 50.402 149.89 50.402C149.388 50.402 149.206 50.3683 148.967 50.2536C148.579 50.0648 148.127 49.6063 147.939 49.2085C147.606 48.5005 147.593 47.4419 147.907 46.7137C148.064 46.3698 148.472 45.8978 148.761 45.7361C149.3 45.4258 150.004 45.3718 150.649 45.5876ZM160.301 45.7091C161.067 46.1136 161.468 46.8822 161.468 47.9543C161.468 48.9253 161.041 49.7547 160.333 50.1659C159.956 50.3885 159.893 50.402 159.366 50.402C158.713 50.402 158.387 50.2738 157.961 49.8626L157.704 49.613L157.691 51.1235L157.672 52.6271H157.295H156.919L156.9 49.0669L156.887 45.5067L157.276 45.527L157.672 45.5472L157.691 45.9383L157.709 46.3226L157.867 46.1271C158.406 45.4393 159.454 45.2572 160.301 45.7091ZM165.14 45.6416C165.315 45.7225 165.56 45.8978 165.692 46.0394L165.924 46.2822V45.8978V45.5067L166.319 45.527L166.708 45.5472V47.9409V50.3345H166.332H165.956L165.924 49.9772L165.893 49.6198L165.679 49.8558C165.341 50.2334 164.92 50.3953 164.293 50.402C163.841 50.402 163.702 50.375 163.414 50.2266C162.686 49.849 162.234 49.1006 162.178 48.1567C162.078 46.5586 163.031 45.3921 164.387 45.4663C164.662 45.4797 164.945 45.5472 165.14 45.6416ZM170.856 45.5876C171.34 45.7832 171.66 46.1069 171.829 46.5788C171.961 46.9362 171.973 47.0711 171.973 48.6488L171.98 50.3345L171.591 50.3547L171.196 50.375V48.7972C171.196 47.1115 171.164 46.8957 170.888 46.5654C170.668 46.3024 170.386 46.1878 169.991 46.1878C169.533 46.1945 169.175 46.3832 168.955 46.7339L168.779 47.0171L168.748 48.6758L168.717 50.3345H168.34H167.963L167.945 47.9207L167.933 45.5067L168.321 45.527L168.717 45.5472L168.736 45.8304L168.754 46.1203L168.911 45.9518C169.369 45.4595 170.16 45.3112 170.856 45.5876ZM175.544 45.6416C175.695 45.7225 175.896 45.8708 175.99 45.9787C176.166 46.1743 176.423 46.8418 176.367 46.9429C176.347 46.9766 176.166 46.9968 175.959 46.9968C175.676 46.9968 175.588 46.9766 175.588 46.8957C175.588 46.7137 175.456 46.4844 175.249 46.3361C174.967 46.1271 174.301 46.1203 174.058 46.3293C173.813 46.5384 173.75 46.7542 173.857 47.0238C173.957 47.2869 174.158 47.4014 174.993 47.6644C175.758 47.9139 176.116 48.1431 176.279 48.4803C176.53 49.013 176.385 49.7007 175.94 50.0648C175.325 50.5705 174.201 50.5503 173.493 50.0244C173.254 49.849 172.953 49.3299 172.953 49.0939C172.953 48.9658 172.99 48.9523 173.329 48.9523C173.693 48.9523 173.706 48.9591 173.793 49.1815C173.907 49.4648 174.082 49.5996 174.484 49.7007C175.087 49.8423 175.651 49.5322 175.651 49.0534C175.651 48.7163 175.469 48.5747 174.659 48.305C173.762 48.0015 173.53 47.8802 173.279 47.5768C172.808 46.9968 173.021 46.0664 173.719 45.6753C174.189 45.4124 175.073 45.3988 175.544 45.6416ZM182.321 45.6146C182.742 45.7764 183.313 46.3563 183.496 46.8081C183.772 47.5025 183.772 48.3927 183.496 49.0669C183.188 49.8154 182.41 50.3615 181.569 50.4222C180.119 50.5234 179.059 49.3299 179.184 47.7453C179.272 46.6193 179.843 45.8371 180.784 45.5405C181.155 45.4258 181.914 45.4663 182.321 45.6146ZM187.707 45.6282C188.114 45.8236 188.421 46.1945 188.573 46.68C188.692 47.0508 188.704 47.2532 188.704 48.7297V50.3683H188.334H187.958L187.939 48.7297C187.92 47.1317 187.913 47.0913 187.762 46.7946C187.342 45.9787 186.087 45.972 185.641 46.7812L185.473 47.098L185.453 48.7297L185.434 50.3683H185.059H184.687V47.9409V45.5135H185.064H185.441V45.8304V46.1473L185.654 45.9248C186.113 45.4528 187.047 45.3179 187.707 45.6282ZM47.4427 47.9409V50.3683H47.0661H46.6896V47.9409V45.5135H47.0661H47.4427V47.9409ZM59.7427 47.9409V50.3683H59.3661H58.9896V47.9409V45.5135H59.3661H59.7427V47.9409ZM67.2231 47.1115C67.2419 48.6151 67.2481 48.7365 67.38 49.0196C67.4616 49.1883 67.6247 49.3973 67.7565 49.4918C67.9511 49.6332 68.0578 49.6602 68.4656 49.6602C68.8798 49.6602 68.9802 49.6332 69.1998 49.4782C69.6518 49.1545 69.6893 49.0063 69.7081 47.1453L69.727 45.5135H70.1349H70.5366L70.524 47.9207L70.5052 50.3345L70.1161 50.3547L69.7207 50.375V50.0581V49.7479L69.4698 49.9839C68.8233 50.6178 67.5244 50.5436 66.947 49.8423C66.514 49.3097 66.4888 49.1748 66.47 47.2464L66.4512 45.5135H66.8215H67.198L67.2231 47.1115ZM75.463 47.9409V50.3345H75.0859H74.7096L74.6911 48.0082C74.6844 46.7272 74.6911 45.6416 74.7096 45.5944C74.7289 45.5337 74.8481 45.5135 75.0985 45.527L75.463 45.5472V47.9409ZM135.206 47.9409V50.3345L134.816 50.3547L134.421 50.375V47.9409V45.5067L134.816 45.527L135.206 45.5472V47.9409ZM153.843 46.363C154.12 46.8284 154.365 47.2262 154.39 47.2396C154.415 47.2599 154.465 47.1992 154.509 47.1183C154.547 47.0306 154.766 46.6396 154.999 46.235L155.413 45.5135H155.801C156.021 45.5135 156.197 45.527 156.197 45.5472C156.197 45.5674 156.09 45.7563 155.953 45.972C155.821 46.181 155.501 46.7069 155.236 47.1385L154.766 47.9207L155.419 49.013C156.322 50.5301 156.279 50.3683 155.777 50.3683H155.344L154.847 49.5187C154.572 49.0534 154.333 48.6624 154.314 48.6488C154.296 48.6354 154.058 49.0196 153.781 49.4985L153.285 50.3683H152.884C152.664 50.3683 152.494 50.3413 152.507 50.3143C152.52 50.2806 152.84 49.7479 153.216 49.1208C153.599 48.4937 153.9 47.9611 153.894 47.9409C153.887 47.9139 153.567 47.3745 153.191 46.7339C152.808 46.1001 152.494 45.5607 152.494 45.5472C152.494 45.527 152.682 45.5135 152.921 45.5135H153.341L153.843 46.363ZM178.224 47.9409V50.375L177.835 50.3547L177.44 50.3345L177.421 48.0082C177.414 46.7272 177.421 45.6416 177.44 45.6012C177.459 45.5405 177.602 45.5135 177.847 45.5135H178.224V47.9409Z" fill="white"/>
<path d="M29.6838 12.8448C28.3158 13.0539 27.0607 13.7012 26.0504 14.7329C24.8141 15.9936 24.1614 17.4366 23.9732 19.3178C23.8413 20.5923 24.0547 21.8262 24.6321 23.0938C25.1153 24.1659 25.7617 25.0155 26.6277 25.7235L26.9227 25.9662V25.5077C26.9227 24.8537 27.0795 23.9097 27.2929 23.2489C27.6632 22.1364 28.2342 21.2733 28.9559 20.7339L29.3073 20.4776L29.1127 20.3495C28.5418 19.9787 28.0585 19.1628 27.9204 18.3401C27.6632 16.7691 28.7425 15.198 30.2487 14.9755C32.0622 14.7126 33.6437 16.4388 33.3299 18.3401C33.1918 19.1628 32.7087 19.9787 32.125 20.3562L31.9305 20.4844L32.1313 20.599C32.4701 20.7878 33.2233 21.6509 33.4993 22.1566C33.9826 23.0533 34.2524 24.058 34.3089 25.1975L34.3466 25.9527L34.698 25.6628C35.5452 24.9548 36.1287 24.1726 36.6246 23.0938C37.1956 21.8329 37.4153 20.545 37.2772 19.2774C36.9822 16.5196 35.5264 14.3956 33.1981 13.3371C32.5518 13.0404 32.0937 12.9123 31.3468 12.8178C30.6566 12.7302 30.4495 12.7302 29.6838 12.8448Z" fill="white"/>
<path d="M30.021 15.8049C29.1235 16.1151 28.5651 17.0119 28.6278 18.03C28.6655 18.6369 28.8726 19.0886 29.3055 19.5067C30.1152 20.2888 31.4267 20.2012 32.1484 19.318C32.6065 18.7583 32.7571 17.821 32.5061 17.1063C32.3429 16.641 31.9099 16.1421 31.4769 15.9128C31.1004 15.724 30.4038 15.67 30.021 15.8049Z" fill="white"/>
<path d="M30.0896 20.99C29.393 21.2396 28.7781 21.7993 28.3702 22.5409C27.8807 23.4377 27.5355 25.1099 27.6485 26.0337L27.6924 26.3842L28.1567 26.6135C29.6253 27.3417 31.5957 27.3215 33.1459 26.5731L33.56 26.3707L33.5976 25.9999C33.7043 25.0829 33.3592 23.431 32.876 22.5409C32.2233 21.3475 30.9996 20.6664 30.0896 20.99Z" fill="white"/>
<path d="M16.691 25.8584C13.9925 26.3843 11.8464 28.697 11.3254 31.6436C11.1184 32.8169 11.2564 34.3744 11.6768 35.5342C12.0722 36.6535 12.9257 37.8739 13.798 38.5954L14.1557 38.892L14.231 38.0425C14.3627 36.4714 14.846 35.1768 15.6304 34.2868C15.8626 34.0305 16.1638 33.7406 16.3081 33.6462C16.4462 33.5518 16.5655 33.4641 16.5655 33.444C16.5655 33.4237 16.4901 33.3563 16.396 33.2956C16.1575 33.1472 15.7685 32.7225 15.5865 32.419C15.1221 31.6369 15.0531 30.4973 15.4171 29.6478C16.2266 27.807 18.4105 27.335 19.7785 28.7105C20.9207 29.8568 20.9332 31.8122 19.8035 32.9584C19.6279 33.1405 19.4271 33.3158 19.3581 33.3563C19.289 33.4035 19.2451 33.444 19.2639 33.4574C19.2827 33.4708 19.4459 33.599 19.6217 33.7406C20.6947 34.5699 21.4227 36.1343 21.5858 37.9616C21.6235 38.3594 21.6298 38.737 21.611 38.7977C21.5481 38.973 21.6361 38.9257 22.0502 38.5752C24.1274 36.795 25.0437 33.8687 24.3847 31.1244C23.7446 28.4543 21.6674 26.3776 19.1195 25.8584C18.5108 25.737 17.3373 25.737 16.691 25.8584Z" fill="white"/>
<path d="M42.5145 25.7978C41.8682 25.9395 41.6611 25.9867 41.4163 26.0744C39.7094 26.6812 38.3476 27.9151 37.5443 29.5873C36.9921 30.7336 36.7725 31.6709 36.7725 32.898C36.7725 34.4623 37.1113 35.649 37.9334 36.9841C38.2471 37.4965 39.0756 38.4202 39.5085 38.7507L39.7031 38.899L39.7471 38.2112C39.8662 36.2356 40.6632 34.4893 41.8242 33.6599L42.1066 33.4576L41.7991 33.2082C40.8703 32.4462 40.4876 31.1044 40.8515 29.9312C41.2594 28.6298 42.3639 27.8342 43.6378 27.9353C45.6522 28.0836 46.8006 30.3829 45.8217 32.318C45.6648 32.6283 44.9871 33.3767 44.8616 33.3767C44.7485 33.3767 44.8113 33.4846 44.9871 33.5992C45.3385 33.8218 45.8719 34.4016 46.1794 34.8939C46.7379 35.7974 47.0579 36.8897 47.1208 38.1573L47.1584 38.9259L47.6291 38.5214C49.8317 36.6402 50.6915 33.4306 49.7565 30.565C48.9595 28.1174 47.0391 26.344 44.6608 25.8586C44.2089 25.7641 42.8471 25.7304 42.5145 25.7978Z" fill="white"/>
<path d="M17.3846 28.7644C16.7947 28.9397 16.2989 29.3983 16.0416 29.9983C15.8596 30.4366 15.8659 31.2659 16.0479 31.7042C16.2362 32.1492 16.6441 32.601 17.0645 32.8167C17.3658 32.9786 17.4913 33.0056 17.918 32.9988C18.6334 32.9921 19.1793 32.682 19.5747 32.0684C20.2651 30.9895 19.9011 29.5061 18.8091 28.9262C18.3259 28.6768 17.8553 28.6228 17.3846 28.7644Z" fill="white"/>
<path d="M42.9483 28.7509C42.3647 28.906 41.8501 29.378 41.5865 29.9983C41.3982 30.4366 41.3982 31.2592 41.5865 31.7042C41.7748 32.1492 42.189 32.6011 42.6032 32.8168C42.8981 32.9786 43.0299 33.0056 43.4566 33.0056C43.8834 32.9989 44.0152 32.9719 44.3227 32.8033C45.8288 32.0009 45.8413 29.7084 44.3478 28.9262C43.8896 28.6903 43.4002 28.6228 42.9483 28.7509Z" fill="white"/>
<path d="M17.5214 33.9227C16.7683 34.0778 15.9588 34.8398 15.5069 35.8242C15.1367 36.6265 14.9923 37.2874 14.9547 38.3797L14.917 39.3102L15.4442 39.5731C16.0654 39.89 16.7369 40.0518 17.6092 40.0991C18.6383 40.1597 19.5232 39.9777 20.5148 39.499L20.9163 39.3102L20.8788 38.4134C20.8348 37.3278 20.6842 36.667 20.2951 35.8174C19.812 34.7521 19.0902 34.0913 18.2305 33.9227C18.0297 33.8822 17.8477 33.8486 17.8288 33.8554C17.81 33.8621 17.672 33.889 17.5214 33.9227Z" fill="white"/>
<path d="M43.0633 33.9159C42.3102 34.0845 41.4944 34.8464 41.0552 35.8038C40.6723 36.64 40.5342 37.2873 40.4967 38.3863L40.459 39.3101L40.9861 39.5731C41.8961 40.0316 43.1261 40.2136 44.2745 40.0586C45.2347 39.9237 46.3516 39.472 46.4207 39.1887C46.4897 38.8988 46.3893 37.5435 46.2513 36.9839C46.0944 36.3096 45.6488 35.3319 45.2974 34.9003C44.6949 34.1519 43.7975 33.7608 43.0633 33.9159Z" fill="white"/>
<path d="M29.8839 40.5171C29.4384 40.8678 28.7606 42.068 28.5849 42.8232C28.5409 43.0254 28.5033 43.0119 29.7647 43.1265L30.2479 43.167V41.7443C30.2479 40.9621 30.2228 40.3215 30.1977 40.3215C30.1663 40.3215 30.0282 40.4092 29.8839 40.5171Z" fill="white"/>
<path d="M31.001 41.7443V43.167L31.4905 43.1265C32.4443 43.0389 32.6953 43.0052 32.6953 42.9445C32.6953 42.9108 32.6263 42.6816 32.5385 42.432C32.3502 41.8994 32.0678 41.3397 31.798 40.9689C31.6096 40.7127 31.1578 40.3215 31.0511 40.3215C31.0261 40.3215 31.001 40.9621 31.001 41.7443Z" fill="white"/>
<path d="M28.7407 40.5507C27.9939 40.8475 27.1655 41.4273 26.6133 42.0342L26.2744 42.405L26.4564 42.4792C26.8204 42.6342 27.8559 42.904 27.9374 42.8635C27.9876 42.8433 28.0629 42.7016 28.1068 42.5466C28.2323 42.0813 28.5963 41.2722 28.8661 40.8542C29.1298 40.4429 29.1109 40.4092 28.7407 40.5507Z" fill="white"/>
<path d="M32.3764 40.8475C32.6462 41.2656 32.9475 41.9331 33.1357 42.513C33.2424 42.8433 33.2487 42.8502 33.4871 42.8366C33.7507 42.8232 34.8301 42.5063 34.9117 42.4186C34.9807 42.3445 34.3281 41.6566 33.87 41.3195C33.4747 41.0296 32.5898 40.5576 32.3011 40.4835L32.1191 40.4363L32.3764 40.8475Z" fill="white"/>
<path d="M25.7655 43.1671C25.3576 43.9223 25.0689 44.8124 25 45.5607L24.9561 45.9855H26.2738H27.5917L27.6294 45.2911C27.6544 44.9067 27.7109 44.3538 27.7675 44.0639C27.8176 43.7672 27.8364 43.511 27.8114 43.4908C27.7863 43.4638 27.5415 43.3896 27.2654 43.3221C26.8261 43.2142 26.368 43.066 26.0291 42.9176C25.9538 42.8839 25.8848 42.9446 25.7655 43.1671Z" fill="white"/>
<path d="M35.0189 42.9986C34.8997 43.0525 34.498 43.1874 34.1216 43.2885C33.7513 43.3896 33.4374 43.484 33.4186 43.5043C33.3998 43.5178 33.4312 43.7739 33.4813 44.0639C33.5379 44.3605 33.5944 44.9067 33.6194 45.2911L33.6571 45.9855H34.975H36.2927L36.2552 45.581C36.23 45.3518 36.161 44.9674 36.1045 44.718C35.9853 44.2393 35.4079 42.9379 35.3013 42.9109C35.2699 42.9042 35.1381 42.9446 35.0189 42.9986Z" fill="white"/>
<path d="M28.284 44.2796C28.2276 44.6774 28.1648 45.2304 28.1397 45.4933L28.0957 45.9855H29.1751H30.2482V44.8527V43.7133L29.4952 43.666C29.081 43.6391 28.6605 43.6054 28.5601 43.5851L28.3844 43.5447L28.284 44.2796Z" fill="white"/>
<path d="M32.2247 43.6256C32.0176 43.6526 31.6599 43.6795 31.4277 43.6863L31.001 43.6931V44.8392V45.9855H32.0741H33.1535L33.1096 45.4933C33.0844 45.2304 33.0216 44.6842 32.9715 44.2796C32.8585 43.4637 32.9338 43.5312 32.2247 43.6256Z" fill="white"/>
<path d="M24.9936 47.0103C25.0627 47.7925 25.2949 48.5611 25.6965 49.3298L25.9098 49.7344L26.5249 49.5186C26.8638 49.3972 27.2717 49.2826 27.4285 49.2556C27.8741 49.1814 27.8741 49.1814 27.7675 48.5746C27.7109 48.2847 27.6544 47.7183 27.6294 47.3138L27.5917 46.5923H26.2738H24.9561L24.9936 47.0103Z" fill="white"/>
<path d="M28.1445 47.1454C28.1821 47.6848 28.3579 48.9457 28.4018 49.0266C28.4081 49.0469 28.5713 49.0401 28.7533 49.0131C28.9353 48.9861 29.2615 48.9591 29.4687 48.9591C29.682 48.9524 29.9455 48.9322 30.0522 48.912L30.2468 48.8649V47.732V46.5925H29.1737H28.1006L28.1445 47.1454Z" fill="white"/>
<path d="M31.001 47.7318V48.8646L31.1955 48.9118C31.3022 48.932 31.5657 48.9522 31.7791 48.959C31.9862 48.959 32.3126 48.986 32.4946 49.013C32.6765 49.0399 32.8396 49.04 32.8522 49.0197C32.9024 48.9388 33.0656 47.7385 33.1096 47.1452L33.1535 46.5923H32.0741H31.001V47.7318Z" fill="white"/>
<path d="M33.6186 47.3137C33.5935 47.7183 33.537 48.2847 33.4805 48.5746C33.3739 49.1814 33.3801 49.1882 33.8068 49.2556C33.9512 49.2759 34.334 49.3838 34.654 49.4916C34.9741 49.5995 35.269 49.6939 35.3067 49.6939C35.4133 49.6939 35.859 48.723 36.0535 48.0757C36.1413 47.7588 36.2355 47.3002 36.2543 47.044L36.2919 46.5923H34.9741H33.6563L33.6186 47.3137Z" fill="white"/>
<path d="M29.0342 49.566C28.7958 49.5929 28.5887 49.6333 28.5699 49.6536C28.4757 49.748 29.0468 51.0762 29.3982 51.6022C29.6053 51.8989 30.0697 52.3237 30.1952 52.3237C30.2203 52.3237 30.2454 51.6831 30.2454 50.9078V49.4917L29.8563 49.4985C29.6367 49.5052 29.2665 49.5322 29.0342 49.566Z" fill="white"/>
<path d="M31.001 50.8942C31.001 51.683 31.0261 52.3236 31.0574 52.3236C31.2081 52.3236 31.7415 51.7707 32.0051 51.3324C32.2687 50.9076 32.6953 49.8962 32.6953 49.7074C32.6953 49.6198 32.3878 49.5591 31.6473 49.5119L31.001 49.4714V50.8942Z" fill="white"/>
<path d="M27.2667 49.8962C26.3504 50.1525 26.2939 50.1728 26.2939 50.2334C26.2939 50.3412 27.116 51.1167 27.5678 51.4336C27.957 51.71 28.9235 52.1888 29.0865 52.1888C29.1053 52.1888 28.9987 52.0067 28.8606 51.7775C28.5908 51.3595 28.139 50.3008 28.0699 49.9502C28.0511 49.8491 28.0197 49.748 27.9946 49.7345C27.9758 49.721 27.6432 49.7951 27.2667 49.8962Z" fill="white"/>
<path d="M33.1582 50.0513C32.9826 50.6177 32.6624 51.3393 32.3864 51.7775C32.2421 52.0067 32.1416 52.1888 32.1604 52.1888C32.3236 52.1888 33.2837 51.7101 33.6791 51.4336C34.1247 51.1235 34.953 50.3412 34.953 50.2334C34.953 50.1795 34.2627 49.957 33.654 49.8018L33.2649 49.7075L33.1582 50.0513Z" fill="white"/>
<path d="M71.5072 26.5328C71.2751 27.5577 71.1558 28.0432 70.7417 29.567C70.4844 30.5313 70.1768 31.6708 70.0576 32.0955C69.9447 32.5203 69.8568 32.8778 69.8693 32.8845C69.8819 32.8979 70.6538 32.898 71.5826 32.8912L73.2833 32.871L72.6871 30.7133C72.3607 29.5266 71.9717 28.0567 71.821 27.4431C71.5951 26.5125 71.545 26.3642 71.5072 26.5328Z" fill="white"/>
<path d="M82.6593 28.7713L82.6778 30.6458L83.023 30.6661C83.5563 30.6998 84.3348 30.5649 84.6926 30.3761C85.3578 30.0255 85.6207 29.1624 85.3763 28.151C85.1496 27.234 84.5859 26.9036 83.2363 26.9036H82.6467L82.6593 28.7713Z" fill="white"/>
<path d="M127.944 30.0051C127.888 30.1737 127.549 31.2391 127.179 32.3719C126.815 33.5113 126.513 34.4554 126.513 34.4823C126.513 34.5026 127.204 34.5228 128.045 34.5228H129.582L129.042 32.8506C128.747 31.9336 128.402 30.8547 128.278 30.4434L128.039 29.7085L127.944 30.0051Z" fill="white"/>
<path d="M115.718 30.612V32.3045L116.992 32.2842C118.209 32.264 118.272 32.2572 118.541 32.0954C119.094 31.7583 119.37 31.0233 119.232 30.2277C119.144 29.7085 118.924 29.3714 118.524 29.1488C118.202 28.9668 118.165 28.96 116.96 28.9398L115.718 28.9128V30.612Z" fill="white"/>
<path d="M62.6566 46.3158C62.1546 46.5585 61.753 47.2868 61.753 47.9408C61.753 48.6083 62.1483 49.3163 62.663 49.5658C63.0268 49.7478 63.529 49.7276 63.9305 49.5321C64.5204 49.2354 64.8217 48.5611 64.7464 47.698C64.7024 47.2396 64.6521 47.098 64.4012 46.7339C64.0624 46.2484 63.2151 46.0393 62.6566 46.3158Z" fill="white"/>
<path d="M101.433 46.3498C100.849 46.6464 100.541 47.3275 100.624 48.1568C100.667 48.6558 100.805 48.9794 101.113 49.2895C101.64 49.8492 102.594 49.829 103.133 49.2491C103.428 48.9323 103.573 48.5142 103.573 47.9748C103.573 47.3882 103.473 47.0577 103.178 46.7071C102.732 46.1744 102.06 46.0395 101.433 46.3498Z" fill="white"/>
<path d="M41.6825 47.28L41.7013 49.6602L42.2661 49.6804C43.6091 49.7275 44.3684 49.3432 44.77 48.4195C44.883 48.1565 44.9018 47.9812 44.9018 47.3002C44.9018 46.5518 44.8893 46.4641 44.7261 46.1067C44.3307 45.2437 43.6844 44.9065 42.4167 44.9065H41.6699L41.6825 47.28Z" fill="white"/>
<path d="M78.0185 46.363C77.4355 46.6733 77.203 47.2464 77.2659 48.2105C77.3348 49.195 77.9185 49.7479 78.8222 49.6805C79.7889 49.6063 80.397 48.5544 80.14 47.4082C79.9141 46.39 78.897 45.891 78.0185 46.363Z" fill="white"/>
<path d="M90.7444 46.3293C90.18 46.6059 89.9222 47.0306 89.8785 47.7791C89.8089 48.932 90.4185 49.694 91.4089 49.694C92.4326 49.6872 93.0726 48.5275 92.7592 47.2801C92.6585 46.889 92.1815 46.3631 91.8422 46.2619C91.4659 46.1541 91.0585 46.1743 90.7444 46.3293Z" fill="white"/>
<path d="M114.864 46.3495C114.338 46.6125 114.024 47.2059 114.024 47.9408C114.024 48.9589 114.658 49.6939 115.524 49.6939C115.962 49.6939 116.307 49.5253 116.602 49.1747C116.892 48.8309 116.999 48.4936 116.999 47.9408C116.999 47.3879 116.892 47.0507 116.602 46.7069C116.158 46.1742 115.486 46.0393 114.864 46.3495Z" fill="white"/>
<path d="M141.949 46.3361C141.617 46.5317 141.321 46.9633 141.278 47.3408L141.24 47.6038H142.64H144.039L144.001 47.3611C143.945 46.9767 143.751 46.6463 143.461 46.4238C143.229 46.2485 143.129 46.2215 142.715 46.2013C142.301 46.181 142.194 46.2013 141.949 46.3361Z" fill="white"/>
<path d="M149.261 46.3025C148.841 46.5385 148.482 47.0644 148.476 47.4487V47.6039H149.858H151.238V47.415C151.232 47.1723 151.043 46.7272 150.855 46.5452C150.773 46.4643 150.598 46.3497 150.473 46.289C150.171 46.1541 149.506 46.1609 149.261 46.3025Z" fill="white"/>
<path d="M158.545 46.3496C157.993 46.626 157.71 47.1654 157.71 47.9409C157.71 48.7162 157.993 49.2556 158.545 49.5321C158.94 49.7276 159.448 49.7411 159.806 49.5659C160.095 49.4242 160.44 49.0332 160.578 48.6893C160.71 48.3521 160.703 47.5093 160.565 47.1654C160.227 46.3159 159.335 45.9517 158.545 46.3496Z" fill="white"/>
<path d="M163.814 46.3159C163.507 46.471 163.144 46.9093 163.049 47.26C163.005 47.4015 162.973 47.7117 162.973 47.9409C162.973 48.5005 163.074 48.8242 163.344 49.1613C163.884 49.8424 164.869 49.8896 165.446 49.2625C165.773 48.9119 165.924 48.4803 165.924 47.8736C165.924 47.1116 165.515 46.4575 164.925 46.262C164.574 46.1541 164.109 46.1744 163.814 46.3159Z" fill="white"/>
<path d="M180.748 46.3631C180.165 46.6733 179.933 47.2465 179.995 48.2107C180.059 49.1479 180.598 49.6941 181.458 49.6941C182.519 49.6941 183.184 48.5343 182.832 47.2735C182.581 46.3496 181.584 45.9181 180.748 46.3631Z" fill="white"/>
</g>
</g>
<defs>
<clipPath id="clip0_1_45">
<rect width="200" height="65" fill="white"/>
</clipPath>
</defs>
</svg>
