<svg width="270" height="85" viewBox="0 0 270 85" fill="none" xmlns="http://www.w3.org/2000/svg">
<g clip-path="url(#clip0_9_1583)">
<mask id="mask0_9_1583" style="mask-type:luminance" maskUnits="userSpaceOnUse" x="0" y="0" width="270" height="85">
<path d="M270 0H0V85H270V0Z" fill="white"/>
</mask>
<g mask="url(#mask0_9_1583)">
<path d="M270 0H0V85H270V0Z" fill="#BE3232"/>
<path d="M0 42.5V85H135H270V42.5V0H135H0V42.5ZM42.978 15.8273C45.0707 16.2064 46.909 17.1852 48.3831 18.7106C53.229 23.7188 51.9328 32.2013 45.8331 35.402C44.9774 35.8428 43.749 36.2661 42.8679 36.416C42.5205 36.4688 42.1478 36.5394 42.0461 36.557L41.8512 36.5923V44.2194V51.8377L42.2579 51.8906C44.0201 52.1374 45.8501 53.0015 47.0022 54.1391L47.3664 54.4917L47.6037 54.2977C47.7393 54.183 48.5611 53.4776 49.4421 52.7283C50.3232 51.9788 51.2127 51.2117 51.4245 51.0265L51.8142 50.7002L51.3991 50.2329C50.069 48.7427 49.2388 47.0675 48.8236 45.057C48.6288 44.0695 48.6288 41.9445 48.8321 41.0187C49.5862 37.5182 51.7549 34.7583 54.7625 33.4622C58.4985 31.8574 62.743 32.6686 65.5895 35.5519C66.9959 36.9803 67.9363 38.6732 68.3684 40.5867C69.5205 45.6479 67.0722 50.6561 62.4465 52.6842C60.8877 53.3719 58.8205 53.6805 57.3549 53.4425C56.0078 53.222 54.4406 52.6048 53.2969 51.8465C52.9325 51.5996 52.6106 51.4056 52.5768 51.4056C52.5428 51.4056 52.2971 51.5908 52.0261 51.82C51.7549 52.058 50.8146 52.8604 49.9335 53.6099C49.0609 54.3594 48.2645 55.0384 48.1714 55.1177C48.0104 55.25 48.0104 55.2676 48.2814 55.6732C48.722 56.3433 49.2896 57.6572 49.476 58.4595C50.0436 60.902 49.6116 63.3621 48.2391 65.5223C47.807 66.2101 46.6295 67.4093 45.9432 67.8677C42.6731 70.0456 38.471 69.6842 35.7006 66.986C34.2266 65.5487 33.4302 64.0234 33.0829 61.9865C32.727 59.8615 33.2523 57.375 34.4298 55.6379C34.5824 55.4176 34.7264 55.1971 34.7603 55.1442C34.8111 55.056 33.7776 54.1302 31.0495 51.82L30.3803 51.2469L29.8635 51.626C28.8978 52.3402 27.6608 52.9045 26.2629 53.2661C25.5852 53.4337 25.2378 53.4688 24.1026 53.4688C22.8826 53.4776 22.6623 53.4513 21.9084 53.2308C18.4179 52.2256 15.8679 49.8361 14.7581 46.5384C13.8431 43.8402 14.0041 41.0451 15.1986 38.4881C17.7825 32.986 24.3398 30.9756 29.3552 34.1587C33.1845 36.5747 34.9975 41.2656 33.8453 45.7624C33.4556 47.279 32.3458 49.3247 31.4392 50.2064C31.2952 50.3563 31.1767 50.4974 31.1767 50.5327C31.1767 50.568 31.7188 51.0617 32.3882 51.6348C33.0489 52.208 34.0147 53.0456 34.54 53.4953L35.4889 54.3153L35.8786 53.9627C37.0986 52.8693 38.6912 52.1374 40.4364 51.8906L40.8347 51.8377V44.2194V36.6011L40.4364 36.5482C39.2589 36.3896 37.8695 35.9398 36.7682 35.3579C33.4556 33.6121 31.3461 30.0146 31.3461 26.0996C31.3461 21.0384 34.8195 16.7443 39.64 15.8361C40.5127 15.6686 42.0885 15.6686 42.978 15.8273ZM86.2441 37.7122C86.2441 45.6919 86.2018 46.3356 85.5579 47.7464C84.8378 49.3423 82.8045 50.709 81.1271 50.7178C80.1697 50.7266 78.6957 50.2682 77.2809 49.5187C76.6369 49.1748 76.0101 48.7251 75.9422 48.5487C75.9084 48.443 77.1876 45.3216 77.3486 45.1187C77.3825 45.0835 77.6197 45.1893 77.8908 45.3569C78.594 45.7977 79.7885 46.3092 80.229 46.3533C80.5594 46.3884 80.6612 46.3621 80.8729 46.1769C81.4406 45.683 81.4998 44.8278 81.4998 37.2271V31.2137H83.872H86.2441V37.7122ZM100.612 34.5202C104.061 45.348 105.475 49.8538 105.475 49.9595C105.475 50.0653 105.086 50.083 103.154 50.083C101.011 50.083 100.824 50.0741 100.782 49.9243C100.697 49.6245 99.9686 46.8117 99.9686 46.7676C99.9686 46.75 98.4607 46.7412 96.6138 46.75L93.2503 46.7765L92.8098 48.4077L92.3778 50.0389L90.0311 50.0653C88.3367 50.083 87.6843 50.0565 87.6843 49.986C87.6843 49.9067 93.3945 31.8574 93.5808 31.3636C93.6316 31.2225 93.8603 31.2137 96.6053 31.2313L99.5789 31.2578L100.612 34.5202ZM115.066 31.3107C116.616 31.4783 117.624 31.9367 118.522 32.8802C119.141 33.5327 119.513 34.2028 119.81 35.1815C119.979 35.7546 120.005 36.0192 120.005 37.1655C119.996 38.3646 119.979 38.5498 119.777 39.1494C119.471 40.0575 119.199 40.5161 118.632 41.1157C118.133 41.6359 117.09 42.2531 116.506 42.3765C116.353 42.4118 116.235 42.4471 116.235 42.4735C116.235 42.5088 117.447 44.4751 119.962 48.5134C120.454 49.2982 120.869 49.9683 120.877 50.0124C120.895 50.0477 119.708 50.083 118.242 50.083H115.574L115.405 49.792C115.319 49.6421 114.431 47.9932 113.43 46.1328L111.618 42.7469L111.592 46.4149L111.575 50.083H109.373H107.17V40.6484V31.2137H110.686C112.626 31.2137 114.582 31.2578 115.066 31.3107ZM125.994 32.9507C126.299 33.9118 127.053 36.222 127.672 38.0913C128.291 39.9606 128.934 42.0768 129.112 42.8087C129.383 43.9108 129.443 44.0872 129.493 43.8667C129.824 42.4206 130.129 41.3802 131.238 37.9943C131.941 35.8428 132.73 33.4357 132.984 32.6421L133.45 31.2137H135.948H138.448L138.397 31.4077C138.372 31.5223 136.754 35.7546 134.796 40.8247L131.238 50.0389L129.434 50.0653L127.629 50.083L127.451 49.6245C127.35 49.3687 125.74 45.1717 123.859 40.2956C121.987 35.4196 120.428 31.3813 120.411 31.3195C120.377 31.2402 120.912 31.2137 122.902 31.2137H125.426L125.994 32.9507ZM204.936 35.0933C205.85 35.1991 206.901 35.499 207.604 35.8604C209.027 36.6011 210.231 37.959 210.824 39.4756L211.028 39.9871L209.324 40.0134C208.011 40.0311 207.604 40.0047 207.554 39.9254C206.985 38.9819 206.393 38.444 205.545 38.1089C204.792 37.818 203.479 37.8004 202.673 38.0736C201.318 38.5234 200.352 39.6167 199.895 41.1774C199.683 41.9093 199.64 43.373 199.802 44.1754C200.098 45.6302 200.979 46.8999 202.063 47.4642C202.682 47.7817 203.801 47.9932 204.47 47.9139C205.775 47.7729 206.935 47.0322 207.435 46.0358L207.57 45.7624H209.298H211.035L210.942 46.0005C210.145 48.2137 208.451 49.8185 206.232 50.4533C205.673 50.6209 205.343 50.6473 204.089 50.6473C202.707 50.6473 202.555 50.6297 201.843 50.4004C199.412 49.6333 197.658 47.808 196.921 45.2775C196.701 44.5368 196.684 44.3781 196.684 42.8967C196.684 41.4242 196.701 41.2568 196.913 40.5337C197.709 37.8444 199.556 35.9751 202.063 35.305C202.512 35.1815 203.182 35.0845 203.928 35.0141C204.004 35.0141 204.461 35.0492 204.936 35.0933ZM241.221 35.2609C242.102 35.499 242.822 35.9134 243.406 36.5041C244.084 37.1919 244.356 37.7915 244.635 39.2111L244.669 39.4139H243.034H241.39L241.28 39.0348C241.026 38.153 240.433 37.7298 239.374 37.6681C238.587 37.624 238.188 37.7298 237.79 38.0736C237.45 38.3735 237.299 38.7614 237.299 39.3257C237.299 40.4456 237.865 40.8599 240.747 41.7946C242.323 42.3148 243.127 42.7381 243.746 43.3818C244.339 43.999 244.627 44.5897 244.754 45.4715C245.016 47.2349 244.178 49.0426 242.669 49.9595C241.068 50.9383 238.34 50.9824 236.553 50.0565C235.595 49.5628 234.909 48.8574 234.503 47.9491C234.266 47.4113 234.037 46.3444 234.129 46.1945C234.155 46.1504 234.867 46.1152 235.715 46.1152H237.256L237.409 46.6706C237.594 47.3231 238.078 47.861 238.628 48.0373C239.103 48.1872 240.077 48.1696 240.543 48.0021C240.95 47.861 241.474 47.3408 241.62 46.944C241.755 46.5913 241.712 46.0182 241.543 45.6126C241.255 44.9688 240.78 44.6956 238.739 43.999C236.451 43.223 235.825 42.9144 235.189 42.2619C234.46 41.4948 234.164 40.6925 234.164 39.5021C234.164 37.527 235.274 35.9927 237.162 35.3579C238.307 34.97 240.001 34.9347 241.221 35.2609ZM176.216 39.9165C177.114 42.5265 178.3 45.9652 178.85 47.57C179.401 49.166 179.858 50.5063 179.858 50.5415C179.858 50.5856 179.155 50.6121 178.3 50.6121H176.741L176.258 49.1572L175.767 47.7023L172.836 47.72L169.904 47.7464L169.438 49.1572L168.973 50.568L167.413 50.5944L165.863 50.6121L165.906 50.4181C165.923 50.3034 166.118 49.7215 166.329 49.1131C166.533 48.5047 167.685 45.1893 168.87 41.7505C170.057 38.3029 171.065 35.4196 171.09 35.3314C171.142 35.1991 171.311 35.1815 172.861 35.1815H174.581L176.216 39.9165ZM185.154 35.7546C185.34 36.0456 186.831 38.3823 188.458 40.9481L191.423 45.6214L191.448 40.4015L191.465 35.1815H192.948H194.43V42.8967V50.6121H192.957H191.482L188.196 45.4362L184.899 40.2604L184.858 45.4186L184.815 50.568L183.315 50.5944L181.808 50.6121V42.9585C181.808 38.7437 181.833 35.2697 181.866 35.2344C181.9 35.208 182.57 35.1903 183.366 35.1991L184.806 35.2256L185.154 35.7546ZM255.919 36.4776L255.945 37.7386H253.141H250.345V39.6343V41.53H252.802H255.259V42.7646V43.999H252.802H250.345V46.027V48.055H253.141H255.945L255.919 49.307L255.895 50.568H251.616H247.338L247.312 42.9849C247.304 38.8143 247.312 35.3491 247.338 35.2873C247.363 35.1991 248.269 35.1815 251.633 35.1991L255.895 35.2256L255.919 36.4776ZM151.139 36.5041V37.7386H148.089H145.039V39.6784V41.6182L147.394 41.6359L149.741 41.6623L149.767 42.8703L149.791 44.0872H147.411H145.039V47.3496V50.6121H143.557H142.074V42.9408V35.2697H146.607H151.139V36.5041ZM160.356 35.4108C161.628 35.6754 162.931 36.5658 163.466 37.5182C164.474 39.2905 164.211 41.7505 162.873 43.126C162.348 43.6639 161.949 43.9372 161.288 44.1842C161.017 44.2899 160.797 44.3957 160.797 44.4134C160.797 44.431 161.534 45.7448 162.432 47.3319C163.339 48.9191 164.118 50.3034 164.177 50.4093L164.279 50.6121H162.55H160.831L159.212 47.6318L157.594 44.6603L156.908 44.6338L156.222 44.6074V47.6141V50.6121H154.739H153.256V42.9408V35.2697H156.476C159.077 35.2697 159.831 35.2961 160.356 35.4108ZM216.542 38.3999V41.53H219.635H222.726V38.3999V35.2697H224.252H225.776V42.9408V50.6121L224.277 50.5944L222.769 50.568L222.743 47.3231L222.726 44.0872H219.635H216.542L216.525 47.3231L216.5 50.568L215 50.5944L213.492 50.6121V42.9408V35.2697H215.017H216.542V38.3999ZM231.622 42.9408V50.6121H230.14H228.657V42.9408V35.2697H230.14H231.622V42.9408ZM64.1833 57.5426C64.3103 57.8687 64.2764 58.0539 64.0223 58.345C63.5733 58.8652 62.7091 58.2832 62.9209 57.6043C63.1073 57.0047 63.946 56.9606 64.1833 57.5426ZM80.6357 57.3397C80.8983 57.5867 80.8899 58.0451 80.6103 58.3273C80.0258 58.9357 79.1277 58.1245 79.6022 57.4191C79.8648 57.0223 80.2629 56.9871 80.6357 57.3397ZM101.849 57.2868C102.061 57.4896 102.121 57.8776 101.968 58.1774C101.578 58.9622 100.468 58.4067 100.748 57.569C100.901 57.1016 101.477 56.9518 101.849 57.2868ZM147.919 57.4896C147.919 57.7717 147.877 57.9481 147.818 57.9658C147.759 57.9834 147.555 58.0363 147.369 58.0716C146.962 58.1686 146.734 58.5477 146.734 59.1384V59.5176H147.369H148.004V59.9585V60.3994H147.369H146.734V63.1328V65.8662H146.225H145.717V63.1328V60.3994H145.285H144.862L144.886 59.9761L144.912 59.5617L145.302 59.5353L145.692 59.5088L145.734 58.8563C145.767 58.3361 145.827 58.1245 146.005 57.8423C146.302 57.375 146.912 57.0928 147.691 57.0575C147.912 57.0487 147.919 57.0663 147.919 57.4896ZM182.62 57.5426C182.747 57.8687 182.714 58.0539 182.459 58.345C182.214 58.6271 181.85 58.6094 181.545 58.292C181.41 58.1509 181.299 57.9746 181.299 57.8952C181.299 57.0928 182.332 56.8107 182.62 57.5426ZM240.535 57.2868C240.747 57.4896 240.806 57.8776 240.653 58.1774C240.264 58.9622 239.154 58.4067 239.434 57.569C239.586 57.1016 240.162 56.9518 240.535 57.2868ZM83.3636 58.9622V60.611L83.7279 60.2495C84.2786 59.6764 84.787 59.4735 85.6511 59.4735C86.2695 59.4735 86.4389 59.5088 86.854 59.7205C87.4556 60.029 88.0401 60.6903 88.2604 61.3075C88.7518 62.683 88.4553 64.2878 87.5487 65.1608C86.9388 65.7427 86.5068 65.9103 85.6087 65.9103C84.7023 65.9103 84.2532 65.7339 83.711 65.1696L83.3636 64.808V65.3372V65.8662H82.8554H82.3471V61.5897V57.3133H82.8554H83.3636V58.9622ZM140.888 61.5897V65.8662H140.38H139.871V65.3195V64.7729L139.516 65.152C138.964 65.7427 138.541 65.9103 137.626 65.9103C136.728 65.9103 136.296 65.7427 135.695 65.1696C134.517 64.041 134.424 61.6603 135.516 60.4082C136.347 59.4471 137.661 59.1737 138.821 59.7293C139.084 59.8526 139.422 60.1084 139.583 60.2848L139.871 60.611V58.9622V57.3133H140.38H140.888V61.5897ZM175.454 58.8211V60.3289L175.809 60.0114C176.716 59.2002 178.343 59.2619 179.181 60.1348C179.783 60.7609 179.858 61.1489 179.858 63.6618V65.8662H179.351H178.842V63.8117C178.833 61.6779 178.783 61.2987 178.444 60.9108C178.029 60.4347 177.089 60.2495 176.453 60.5317C176.013 60.7168 175.656 61.193 175.546 61.722C175.496 61.9689 175.454 63.0005 175.454 64.0146V65.8662H174.945H174.437V61.5897V57.3133H174.945H175.454V58.8211ZM58.6765 57.9217C60.2862 58.2391 61.3875 59.3501 61.6755 60.9284C62.0144 62.78 61.3028 64.5877 59.9473 65.3107C59.1171 65.7515 58.8459 65.7956 56.999 65.8397L55.2369 65.8838V61.8631V57.8423H56.7533C57.5836 57.8423 58.4478 57.8776 58.6765 57.9217ZM72.7568 58.7417L72.7822 59.5088L73.5616 59.5353L74.3411 59.5617L74.3664 59.9761L74.3919 60.3994H73.587H72.7738V62.4539C72.7738 64.0851 72.7992 64.5436 72.8923 64.6847C72.9856 64.8169 73.1465 64.861 73.6803 64.8962L74.3411 64.9403V65.3813V65.8221H73.5362C72.6467 65.8221 72.3162 65.6898 71.9774 65.2225C71.808 64.9844 71.7995 64.8345 71.7571 62.7095L71.7148 60.4435L71.3081 60.417L70.9014 60.3906L70.9269 59.9761L70.9523 59.5617L71.359 59.5353L71.7571 59.5088V58.7152V57.9217L72.2485 57.9481L72.7314 57.9746L72.7568 58.7417ZM98.1048 58.7241V59.5088L98.8927 59.5353L99.6721 59.5617L99.6975 59.9761L99.7229 60.3994H98.9097H98.0963L98.1217 62.5156C98.1387 64.0939 98.1726 64.6494 98.2573 64.7376C98.3166 64.7993 98.6555 64.8698 99.0198 64.8962L99.6721 64.9403V65.3813V65.8221L99.0621 65.8485C98.0878 65.8926 97.4609 65.6281 97.2322 65.0814C97.1729 64.9403 97.1136 64.0322 97.0882 62.6479L97.0458 60.4435L96.6476 60.417L96.2409 60.3906V59.9497V59.5176H96.6646H97.0882V58.7241V57.9305H97.5965H98.1048V58.7241ZM69.0292 59.7293C69.4866 59.9761 69.8086 60.3465 69.9696 60.8314C70.1475 61.4045 70.122 61.4574 69.5799 61.4574C69.0885 61.4574 69.0885 61.4574 68.9445 61.1048C68.7497 60.6286 68.3684 60.3994 67.75 60.3994C66.9874 60.3994 66.5893 60.6903 66.5893 61.2371C66.5893 61.6779 66.962 61.9337 68.199 62.3392C69.2071 62.6655 69.3851 62.7536 69.69 63.0799C70.139 63.5384 70.2492 64.0675 70.0289 64.6759C69.7408 65.443 69.0801 65.8662 68.0634 65.9367C66.7333 66.0249 65.7167 65.3724 65.4541 64.2526L65.4032 64.0146H65.9369C66.4622 64.0146 66.4792 64.0234 66.5978 64.2967C66.9366 65.1079 68.3175 65.3019 68.9021 64.6318C69.4189 64.0234 69.0715 63.556 67.8177 63.1857C66.818 62.8859 66.4706 62.736 66.1148 62.4627C65.3694 61.8631 65.4032 60.5317 66.1742 59.932C66.8943 59.3854 68.1904 59.2884 69.0292 59.7293ZM78.5177 59.9761L78.4923 60.5317L78.0264 60.5845C77.4164 60.655 77.069 60.8491 76.8233 61.2547C76.6369 61.5809 76.6285 61.6603 76.603 63.7324L76.5776 65.875L76.0524 65.8485L75.5271 65.8221V62.6919V59.5617L76.0609 59.5353L76.5862 59.5088V59.9585V60.417L76.8064 60.1348C77.1453 59.7293 77.7129 59.4559 78.2635 59.4383L78.5431 59.4295L78.5177 59.9761ZM106.983 59.5176C108.246 59.8263 109.068 60.7609 109.279 62.1364C109.373 62.78 109.279 63.5913 109.034 64.1644C108.618 65.1432 107.568 65.8574 106.433 65.9367C105.128 66.0249 104.069 65.4077 103.51 64.2085C103.247 63.6618 103.23 63.5648 103.23 62.736C103.239 61.7044 103.417 61.1048 103.917 60.5052C104.62 59.6499 105.857 59.2531 106.983 59.5176ZM114.447 59.5706C115.134 59.7822 115.684 60.3553 115.896 61.0783C116.048 61.5809 116.065 61.8984 116.065 63.7588V65.8662H115.566H115.066L115.031 63.7235C115.007 61.6338 114.998 61.5809 114.795 61.193C114.506 60.655 114.057 60.3994 113.406 60.3994C112.701 60.3994 112.236 60.6462 111.931 61.1754L111.702 61.5897L111.677 63.7235L111.651 65.8662H111.143H110.643V62.6919V59.5176H111.152H111.66V59.932V60.3465L111.948 60.0555C112.507 59.4912 113.55 59.2884 114.447 59.5706ZM123.969 59.5794C124.343 59.6852 124.588 59.8351 124.927 60.1613L125.385 60.5933V60.0555V59.5176H125.893H126.401V62.6919V65.8662H125.893H125.385V65.3195V64.7729L125.037 65.1343C124.487 65.7163 124.037 65.9015 123.139 65.9015C122.249 65.9103 121.742 65.7251 121.207 65.1784C119.979 63.944 119.912 61.6515 121.056 60.373C121.817 59.5176 122.826 59.2443 123.969 59.5794ZM132.162 59.6676C132.662 59.8967 132.984 60.2495 133.255 60.8402C133.474 61.3163 133.474 61.3604 133.5 63.5913L133.526 65.8662H133.018H132.518L132.483 63.7235L132.459 61.5897L132.229 61.1754C131.628 60.1172 129.951 60.126 129.366 61.2018C129.162 61.5809 129.154 61.6338 129.129 63.7235L129.104 65.8662H128.595H128.096V62.6919V59.5176H128.603H129.112V59.932V60.3465L129.392 60.0643C130.018 59.4295 131.273 59.2531 132.162 59.6676ZM152.138 59.9761L152.114 60.5317L151.596 60.5845C151.003 60.6462 150.631 60.8755 150.393 61.3075C150.275 61.5456 150.241 61.916 150.207 63.7059L150.165 65.8221L149.64 65.8485L149.105 65.875V62.6919V59.5088L149.64 59.5353L150.165 59.5617L150.19 59.9849L150.216 60.3994L150.436 60.1348C150.766 59.7293 151.334 59.4559 151.884 59.4383L152.164 59.4295L152.138 59.9761ZM156.917 59.6764C157.12 59.7734 157.425 59.9937 157.611 60.1701C157.789 60.3465 157.95 60.4876 157.967 60.4876C157.984 60.4876 158.002 60.2671 158.002 60.0026V59.5176H158.509H159.018V62.6919V65.8662H158.509H158.002V65.3283V64.7905L157.645 65.1696C157.086 65.7427 156.663 65.9103 155.756 65.9103C155.096 65.9103 154.934 65.875 154.511 65.6634C153.342 65.0638 152.69 63.6001 152.918 62.0923C153.037 61.3516 153.24 60.8667 153.638 60.4082C154.257 59.694 154.96 59.4118 155.943 59.4647C156.289 59.4912 156.705 59.5794 156.917 59.6764ZM164.779 59.6676C165.261 59.8879 165.686 60.3289 165.914 60.8402C166.075 61.2018 166.092 61.4222 166.118 63.5472L166.142 65.8662H165.635H165.126L165.1 63.7235C165.076 61.6338 165.067 61.5809 164.863 61.193C164.296 60.126 162.602 60.1172 162 61.1754L161.772 61.5897L161.746 63.7235L161.712 65.8662H161.213H160.712V62.6919V59.5176H161.22H161.729V59.932V60.3465L162.017 60.0555C162.627 59.4383 163.898 59.2619 164.779 59.6676ZM171.768 59.7734C172.335 60.0643 172.734 60.4964 172.954 61.0519C173.175 61.5897 173.141 61.6338 172.573 61.6338C172.09 61.6338 172.064 61.625 171.929 61.3428C171.582 60.6286 171.107 60.3641 170.243 60.417C169.751 60.4435 169.566 60.4964 169.278 60.6903C168.354 61.3252 168.15 63.318 168.896 64.3496C169.633 65.3548 171.455 65.2049 171.896 64.1026C171.997 63.847 172.023 63.8382 172.539 63.8382C173.149 63.8382 173.166 63.8646 172.92 64.4113C172.369 65.6369 170.811 66.2453 169.379 65.7956C168.032 65.3636 167.346 64.2085 167.423 62.4803C167.507 60.5052 168.693 59.3677 170.574 59.4647C171.099 59.4912 171.344 59.5617 171.768 59.7734ZM187.467 59.7293C187.924 59.9761 188.246 60.3465 188.407 60.8314C188.585 61.4045 188.559 61.4574 188.017 61.4574C187.526 61.4574 187.526 61.4574 187.382 61.1048C187.186 60.6286 186.806 60.3994 186.188 60.3994C185.458 60.3994 185.036 60.6991 185.027 61.2194C185.027 61.6779 185.382 61.9248 186.636 62.3392C187.644 62.6655 187.822 62.7536 188.127 63.0799C188.991 63.9793 188.517 65.4165 187.221 65.8133C185.739 66.2717 184.196 65.5752 183.925 64.3143L183.858 64.0146H184.383C184.899 64.0146 184.916 64.0234 185.052 64.3231C185.408 65.1079 186.687 65.3019 187.297 64.667C187.856 64.0851 187.577 63.6001 186.483 63.2651C184.883 62.7712 184.4 62.498 184.146 61.9425C183.841 61.2899 184.069 60.3553 184.62 59.9497C185.391 59.3765 186.619 59.2795 187.467 59.7293ZM193.972 59.7822C194.55 60.0731 195.006 60.5669 195.244 61.1489C195.431 61.6162 195.549 62.4098 195.481 62.7977L195.431 63.1328H193.024H190.618L190.669 63.3709C190.872 64.2702 191.381 64.808 192.177 64.9844C193.007 65.1608 193.787 64.8345 194.134 64.1556C194.295 63.847 194.303 63.8382 194.829 63.8382C195.142 63.8382 195.362 63.8735 195.362 63.9264C195.362 64.1556 194.922 64.8962 194.6 65.1961C194.015 65.7427 193.583 65.9015 192.609 65.9015C191.863 65.9103 191.702 65.8838 191.287 65.681C190.677 65.3813 190.152 64.8345 189.864 64.1997C189.669 63.7588 189.644 63.6001 189.644 62.6919C189.644 61.7837 189.669 61.625 189.864 61.193C190.415 59.9673 191.38 59.3942 192.77 59.4647C193.295 59.4912 193.54 59.5617 193.972 59.7822ZM203.376 59.6146C203.851 59.7646 204.029 59.8879 204.436 60.3024C204.842 60.7344 204.952 60.9108 205.105 61.431C205.224 61.8455 205.274 62.2246 205.257 62.5685L205.233 63.0887L202.843 63.1152L200.446 63.1328V63.3356C200.454 63.6354 200.751 64.2526 201.013 64.5083C201.895 65.3548 203.445 65.1343 203.97 64.0939C204.08 63.8558 204.131 63.8382 204.597 63.8382C205.181 63.8382 205.207 63.8999 204.936 64.4554C204.698 64.9403 204.207 65.4077 203.664 65.681C203.258 65.8838 203.088 65.9103 202.351 65.9103C201.674 65.9103 201.428 65.8662 201.106 65.7163C200.581 65.4694 199.971 64.8698 199.717 64.3496C199.268 63.4237 199.251 62.0394 199.675 61.0872C199.887 60.6374 200.437 60.0202 200.827 59.8087C201.555 59.403 202.505 59.3324 203.376 59.6146ZM216.406 59.7734C217.44 60.3024 217.982 61.3075 217.982 62.7095C217.982 63.9793 217.406 65.0638 216.449 65.6016C215.94 65.8926 215.856 65.9103 215.144 65.9103C214.263 65.9103 213.823 65.7427 213.247 65.2049L212.9 64.8786L212.883 66.8538L212.857 68.82H212.348H211.84L211.815 64.1644L211.798 59.5088L212.323 59.5353L212.857 59.5617L212.883 60.0731L212.907 60.5757L213.12 60.32C213.848 59.4206 215.263 59.1825 216.406 59.7734ZM222.939 59.6852C223.175 59.791 223.506 60.0202 223.684 60.2054L223.998 60.5229V60.0202V59.5088L224.531 59.5353L225.056 59.5617V62.6919V65.8221H224.548H224.04L223.998 65.3548L223.955 64.8874L223.667 65.1961C223.21 65.6898 222.642 65.9015 221.795 65.9103C221.185 65.9103 220.998 65.875 220.609 65.681C219.626 65.1872 219.016 64.2085 218.94 62.9741C218.805 60.8843 220.092 59.3589 221.922 59.4559C222.294 59.4735 222.676 59.5617 222.939 59.6852ZM230.656 59.6146C231.309 59.8703 231.741 60.2936 231.969 60.9108C232.147 61.3781 232.164 61.5545 232.164 63.6177L232.173 65.8221L231.648 65.8485L231.114 65.875V63.8117C231.114 61.6074 231.072 61.3252 230.699 60.8932C230.402 60.5493 230.021 60.3994 229.488 60.3994C228.869 60.4082 228.386 60.655 228.089 61.1136L227.852 61.4839L227.81 63.653L227.768 65.8221H227.259H226.75L226.726 62.6655L226.709 59.5088L227.234 59.5353L227.768 59.5617L227.793 59.932L227.818 60.3112L228.03 60.0908C228.648 59.4471 229.716 59.2531 230.656 59.6146ZM236.985 59.6852C237.188 59.791 237.459 59.9849 237.587 60.126C237.824 60.3818 238.171 61.2547 238.095 61.3869C238.069 61.431 237.824 61.4574 237.544 61.4574C237.162 61.4574 237.044 61.431 237.044 61.3252C237.044 61.0872 236.866 60.7873 236.586 60.5933C236.205 60.32 235.307 60.3112 234.978 60.5845C234.647 60.8579 234.563 61.1401 234.707 61.4927C234.842 61.8367 235.113 61.9865 236.24 62.3304C237.273 62.6567 237.756 62.9564 237.976 63.3973C238.315 64.0939 238.12 64.9932 237.519 65.4694C236.689 66.1307 235.172 66.1043 234.215 65.4165C233.893 65.1872 233.486 64.5083 233.486 64.1997C233.486 64.0322 233.536 64.0146 233.994 64.0146C234.486 64.0146 234.503 64.0234 234.621 64.3143C234.774 64.6847 235.011 64.861 235.554 64.9932C236.367 65.1784 237.129 64.7729 237.129 64.1467C237.129 63.7059 236.883 63.5207 235.79 63.1681C234.579 62.7712 234.265 62.6126 233.927 62.2158C233.291 61.4574 233.579 60.2407 234.52 59.7293C235.155 59.3854 236.349 59.3677 236.985 59.6852ZM246.134 59.6499C246.702 59.8615 247.473 60.6198 247.719 61.2106C248.092 62.1187 248.092 63.2827 247.719 64.1644C247.304 65.1432 246.253 65.8574 245.118 65.9367C243.161 66.069 241.729 64.5083 241.899 62.4362C242.017 60.9637 242.788 59.9408 244.059 59.5529C244.559 59.403 245.584 59.4559 246.134 59.6499ZM253.404 59.6676C253.954 59.9232 254.369 60.4082 254.573 61.0431C254.734 61.528 254.751 61.7926 254.751 63.7235V65.8662H254.251H253.743L253.717 63.7235C253.692 61.6338 253.683 61.5809 253.479 61.193C252.912 60.126 251.218 60.1172 250.616 61.1754L250.388 61.5897L250.362 63.7235L250.336 65.8662H249.829H249.328V62.6919V59.5176H249.837H250.345V59.932V60.3465L250.633 60.0555C251.252 59.4383 252.514 59.2619 253.404 59.6676ZM64.0477 62.6919V65.8662H63.5393H63.031V62.6919V59.5176H63.5393H64.0477V62.6919ZM80.6526 62.6919V65.8662H80.1443H79.636V62.6919V59.5176H80.1443H80.6526V62.6919ZM90.7512 61.6074C90.7766 63.5736 90.785 63.7324 90.963 64.1026C91.0731 64.3231 91.2934 64.5965 91.4713 64.72C91.734 64.905 91.878 64.9403 92.4286 64.9403C92.9878 64.9403 93.1233 64.905 93.4198 64.7023C94.0299 64.279 94.0806 64.0851 94.106 61.6515L94.1315 59.5176H94.6821H95.2244L95.2074 62.6655L95.182 65.8221L94.6567 65.8485L94.123 65.875V65.4606V65.055L93.7842 65.3636C92.9115 66.1925 91.1579 66.0955 90.3785 65.1784C89.7939 64.4819 89.7599 64.3055 89.7345 61.7837L89.7091 59.5176H90.209H90.7173L90.7512 61.6074ZM101.875 62.6919V65.8221H101.366H100.858L100.833 62.78C100.824 61.1048 100.833 59.6852 100.858 59.6235C100.884 59.5441 101.045 59.5176 101.383 59.5353L101.875 59.5617V62.6919ZM182.528 62.6919V65.8221L182.002 65.8485L181.468 65.875V62.6919V59.5088L182.002 59.5353L182.528 59.5617V62.6919ZM207.688 60.6286C208.062 61.2371 208.393 61.7573 208.427 61.7749C208.46 61.8014 208.528 61.722 208.587 61.6162C208.638 61.5015 208.934 60.9902 209.248 60.4611L209.807 59.5176H210.332C210.629 59.5176 210.866 59.5353 210.866 59.5617C210.866 59.5882 210.722 59.8351 210.536 60.1172C210.358 60.3906 209.926 61.0783 209.569 61.6426L208.934 62.6655L209.816 64.0939C211.035 66.0778 210.976 65.8662 210.299 65.8662H209.714L209.044 64.7552C208.672 64.1467 208.35 63.6354 208.324 63.6177C208.299 63.6001 207.978 64.1026 207.604 64.7288L206.935 65.8662H206.393C206.097 65.8662 205.867 65.8309 205.884 65.7956C205.902 65.7515 206.334 65.055 206.841 64.2349C207.359 63.4149 207.765 62.7183 207.757 62.6919C207.748 62.6567 207.316 61.9513 206.808 61.1136C206.291 60.2848 205.867 59.5794 205.867 59.5617C205.867 59.5353 206.121 59.5176 206.443 59.5176H207.011L207.688 60.6286ZM240.603 62.6919V65.875L240.077 65.8485L239.544 65.8221L239.518 62.78C239.509 61.1048 239.518 59.6852 239.544 59.6323C239.569 59.5529 239.763 59.5176 240.094 59.5176H240.603V62.6919Z" fill="white"/>
<path d="M40.0732 16.797C38.2264 17.0704 36.5319 17.9169 35.168 19.266C33.499 20.9147 32.6179 22.8017 32.3638 25.2617C32.1858 26.9283 32.4739 28.5419 33.2533 30.1995C33.9057 31.6015 34.7783 32.7125 35.9474 33.6383L36.3456 33.9558V33.3562C36.3456 32.5009 36.5573 31.2665 36.8454 30.4023C37.3453 28.9475 38.1162 27.8189 39.0905 27.1135L39.5649 26.7784L39.3022 26.6108C38.5314 26.1259 37.879 25.059 37.6926 23.9832C37.3453 21.9288 38.8024 19.8743 40.8357 19.5833C43.284 19.2395 45.419 21.4968 44.9954 23.9832C44.809 25.059 44.1567 26.1259 43.3688 26.6196L43.1062 26.7872L43.3773 26.9371C43.8347 27.184 44.8514 28.3126 45.2241 28.9739C45.8765 30.1466 46.2408 31.4604 46.317 32.9505L46.3679 33.9381L46.8423 33.559C47.986 32.6332 48.7738 31.6103 49.4432 30.1995C50.214 28.5507 50.5106 26.8665 50.3242 25.2088C49.926 21.6025 47.9606 18.825 44.8175 17.4407C43.9449 17.0528 43.3265 16.8852 42.3182 16.7617C41.3864 16.6471 41.1068 16.6471 40.0732 16.797Z" fill="white"/>
<path d="M40.5284 20.6683C39.3168 21.074 38.5629 22.2467 38.6476 23.5781C38.6984 24.3717 38.978 24.9624 39.5625 25.5091C40.6555 26.5319 42.4261 26.4173 43.4004 25.2623C44.0188 24.5304 44.2221 23.3047 43.8832 22.3701C43.6629 21.7617 43.0784 21.1093 42.4938 20.8094C41.9856 20.5625 41.0452 20.4919 40.5284 20.6683Z" fill="white"/>
<path d="M40.621 27.4489C39.6806 27.7752 38.8504 28.5071 38.2997 29.4769C37.6389 30.6497 37.1729 32.8364 37.3255 34.0444L37.3847 34.5028L38.0116 34.8027C39.9941 35.7549 42.6542 35.7285 44.7469 34.7498L45.306 34.4852L45.3568 34.0003C45.5008 32.8011 45.0349 30.6409 44.3826 29.4769C43.5015 27.9163 41.8494 27.0257 40.621 27.4489Z" fill="white"/>
<path d="M22.5329 33.8144C18.8899 34.5021 15.9926 37.5264 15.2893 41.3797C15.0098 42.9139 15.1962 44.9507 15.7637 46.4673C16.2975 47.931 17.4497 49.5269 18.6273 50.4704L19.1102 50.8583L19.2119 49.7474C19.3897 47.6929 20.0421 46 21.1011 44.8361C21.4145 44.501 21.8212 44.1219 22.016 43.9984C22.2024 43.875 22.3634 43.7603 22.3634 43.734C22.3634 43.7075 22.2617 43.6193 22.1346 43.5399C21.8127 43.3459 21.2875 42.7905 21.0418 42.3936C20.4148 41.3709 20.3217 39.8807 20.8131 38.7697C21.9059 36.3625 24.8542 35.7453 26.701 37.544C28.2429 39.043 28.2599 41.6001 26.7348 43.099C26.4977 43.3371 26.2266 43.5664 26.1334 43.6193C26.0402 43.681 25.9809 43.734 26.0063 43.7515C26.0317 43.7691 26.252 43.9367 26.4893 44.1219C27.9379 45.2064 28.9206 47.2521 29.1409 49.6416C29.1917 50.1618 29.2002 50.6556 29.1749 50.735C29.09 50.9642 29.2087 50.9024 29.7678 50.444C32.572 48.1161 33.809 44.2894 32.9194 40.7007C32.0553 37.209 29.251 34.4933 25.8114 33.8144C24.9896 33.6556 23.4054 33.6556 22.5329 33.8144Z" fill="white"/>
<path d="M57.3945 33.7357C56.522 33.9209 56.2424 33.9826 55.912 34.0973C53.6077 34.8908 51.7692 36.5044 50.6848 38.6911C49.9393 40.1901 49.6428 41.4158 49.6428 43.0205C49.6428 45.0661 50.1002 46.618 51.2101 48.3639C51.6336 49.034 52.752 50.2419 53.3365 50.674L53.5991 50.868L53.6585 49.9686C53.8194 47.3851 54.8953 45.1014 56.4627 44.0169L56.8439 43.7523L56.4288 43.4261C55.1749 42.4297 54.6582 40.6751 55.1495 39.1408C55.7002 37.439 57.1912 36.3986 58.911 36.5308C61.6305 36.7248 63.1808 39.7316 61.8593 42.2621C61.6475 42.6678 60.7325 43.6465 60.5631 43.6465C60.4105 43.6465 60.4952 43.7876 60.7325 43.9375C61.2069 44.2285 61.927 44.9867 62.3422 45.6305C63.0961 46.812 63.5282 48.2404 63.613 49.8981L63.6638 50.9032L64.2992 50.3742C67.2728 47.9141 68.4335 43.717 67.1712 39.9697C66.0953 36.7689 63.5028 34.4499 60.292 33.8151C59.682 33.6916 57.8436 33.6475 57.3945 33.7357Z" fill="white"/>
<path d="M23.4692 37.6152C22.6728 37.8444 22.0035 38.4441 21.6561 39.2287C21.4104 39.8019 21.419 40.8864 21.6646 41.4595C21.9188 42.0415 22.4695 42.6323 23.0371 42.9144C23.4438 43.1261 23.6132 43.1614 24.1893 43.1525C25.1551 43.1437 25.8921 42.7382 26.4258 41.9358C27.3578 40.525 26.8664 38.5851 25.3923 37.8268C24.74 37.5006 24.1046 37.43 23.4692 37.6152Z" fill="white"/>
<path d="M57.9802 37.5973C57.1923 37.8001 56.4976 38.4173 56.1418 39.2285C55.8876 39.8016 55.8876 40.8774 56.1418 41.4593C56.3959 42.0412 56.9551 42.6321 57.5143 42.9142C57.9124 43.1258 58.0903 43.1611 58.6664 43.1611C59.2425 43.1523 59.4205 43.117 59.8356 42.8966C61.8688 41.8473 61.8858 38.8494 59.8695 37.8265C59.2509 37.518 58.5902 37.4298 57.9802 37.5973Z" fill="white"/>
<path d="M23.6538 44.3607C22.6371 44.5635 21.5443 45.5599 20.9343 46.8472C20.4345 47.8964 20.2396 48.7606 20.1888 50.189L20.1379 51.4058L20.8496 51.7497C21.6883 52.1641 22.5948 52.3757 23.7724 52.4375C25.1617 52.5168 26.3563 52.2787 27.6949 51.6527L28.237 51.4058L28.1863 50.2331C28.1269 48.8135 27.9236 47.9494 27.3984 46.8384C26.7461 45.4453 25.7717 44.5811 24.6111 44.3607C24.34 44.3077 24.0943 44.2638 24.0689 44.2726C24.0435 44.2814 23.8571 44.3166 23.6538 44.3607Z" fill="white"/>
<path d="M58.1355 44.3516C57.1188 44.572 56.0174 45.5683 55.4245 46.8204C54.9076 47.9138 54.7212 48.7603 54.6705 50.1975L54.6196 51.4055L55.3313 51.7494C56.5597 52.349 58.2202 52.587 59.7706 52.3843C61.0668 52.2079 62.5747 51.6172 62.6679 51.2468C62.7611 50.8677 62.6256 49.0953 62.4392 48.3635C62.2274 47.4818 61.6259 46.2032 61.1515 45.6389C60.3381 44.6602 59.1267 44.1487 58.1355 44.3516Z" fill="white"/>
<path d="M40.3433 52.9843C39.7418 53.4428 38.8268 55.0123 38.5896 55.9999C38.5303 56.2643 38.4795 56.2467 40.1823 56.3966L40.8347 56.4495V54.5891C40.8347 53.5662 40.8008 52.7285 40.7669 52.7285C40.7245 52.7285 40.5381 52.8432 40.3433 52.9843Z" fill="white"/>
<path d="M41.8513 54.5891V56.4495L42.5121 56.3966C43.7998 56.282 44.1387 56.2379 44.1387 56.1585C44.1387 56.1144 44.0455 55.8147 43.9269 55.4884C43.6727 54.7918 43.2915 54.06 42.9273 53.575C42.673 53.24 42.063 52.7285 41.919 52.7285C41.8852 52.7285 41.8513 53.5662 41.8513 54.5891Z" fill="white"/>
<path d="M38.7999 53.0276C37.7918 53.4156 36.6734 54.1739 35.9279 54.9675L35.4705 55.4524L35.7162 55.5494C36.2076 55.7521 37.6054 56.1049 37.7155 56.052C37.7832 56.0255 37.8849 55.8403 37.9442 55.6376C38.1136 55.0291 38.605 53.9711 38.9693 53.4244C39.3252 52.8866 39.2997 52.8425 38.7999 53.0276Z" fill="white"/>
<path d="M43.7081 53.4157C44.0724 53.9624 44.4791 54.8353 44.7332 55.5936C44.8772 56.0256 44.8858 56.0345 45.2076 56.0168C45.5635 55.9992 47.0207 55.5848 47.1308 55.4702C47.224 55.3732 46.3429 54.4737 45.7245 54.0329C45.1908 53.6538 43.9962 53.0366 43.6065 52.9396L43.3608 52.8779L43.7081 53.4157Z" fill="white"/>
<path d="M34.7835 56.449C34.2328 57.4365 33.8431 58.6005 33.75 59.5791L33.6907 60.1346H35.4697H37.2488L37.2997 59.2265C37.3335 58.7238 37.4098 58.0008 37.4861 57.6217C37.5538 57.2337 37.5792 56.8987 37.5454 56.8722C37.5115 56.8369 37.1811 56.7399 36.8083 56.6517C36.2153 56.5106 35.5968 56.3167 35.1393 56.1227C35.0376 56.0786 34.9445 56.158 34.7835 56.449Z" fill="white"/>
<path d="M47.2755 56.2289C47.1146 56.2994 46.5723 56.4758 46.0641 56.608C45.5642 56.7402 45.1405 56.8637 45.1151 56.8902C45.0897 56.9078 45.1321 57.2428 45.1998 57.622C45.2761 58.0099 45.3524 58.7241 45.3862 59.2268L45.4371 60.1349H47.2162H48.9952L48.9445 59.6059C48.9105 59.3062 48.8174 58.8035 48.7411 58.4773C48.5801 57.8513 47.8007 56.1495 47.6567 56.1142C47.6144 56.1054 47.4364 56.1583 47.2755 56.2289Z" fill="white"/>
<path d="M38.1834 57.9044C38.1072 58.4247 38.0225 59.1478 37.9886 59.4916L37.9292 60.1353H39.3864H40.8351V58.6539V57.1639L39.8185 57.1021C39.2593 57.0669 38.6917 57.0228 38.5562 56.9963L38.319 56.9434L38.1834 57.9044Z" fill="white"/>
<path d="M43.5033 57.0489C43.2237 57.0842 42.7409 57.1194 42.4274 57.1282L41.8513 57.1371V58.6359V60.1349H43.3H44.7572L44.6979 59.4912C44.6639 59.1474 44.5792 58.4332 44.5115 57.9041C44.3589 56.8372 44.4606 56.9254 43.5033 57.0489Z" fill="white"/>
<path d="M33.7414 61.4753C33.8347 62.4982 34.1481 63.5033 34.6903 64.5085L34.9783 65.0376L35.8086 64.7554C36.2661 64.5967 36.8168 64.4468 37.0285 64.4115C37.6301 64.3145 37.6301 64.3145 37.4861 63.521C37.4098 63.1419 37.3335 62.4012 37.2997 61.8722L37.2488 60.9287H35.4697H33.6907L33.7414 61.4753Z" fill="white"/>
<path d="M37.9951 61.6517C38.0459 62.3571 38.2832 64.0059 38.3425 64.1117C38.3509 64.1382 38.5712 64.1294 38.8169 64.0941C39.0626 64.0588 39.5031 64.0235 39.7827 64.0235C40.0707 64.0147 40.4265 63.9883 40.5705 63.9618L40.8332 63.9002V62.4188V60.9287H39.3845H37.9358L37.9951 61.6517Z" fill="white"/>
<path d="M41.8513 62.4188V63.9002L42.1139 63.9619C42.2579 63.9883 42.6137 64.0148 42.9018 64.0236C43.1814 64.0236 43.622 64.0589 43.8677 64.0942C44.1132 64.1294 44.3335 64.1295 44.3505 64.103C44.4182 63.9972 44.6385 62.4276 44.6979 61.6517L44.7572 60.9287H43.3H41.8513V62.4188Z" fill="white"/>
<path d="M45.3851 61.8721C45.3512 62.4012 45.275 63.1419 45.1987 63.521C45.0547 64.3145 45.0631 64.3234 45.6392 64.4115C45.8341 64.438 46.3509 64.5791 46.7829 64.7201C47.215 64.8612 47.6132 64.9847 47.664 64.9847C47.808 64.9847 48.4096 63.715 48.6722 62.8685C48.7908 62.4541 48.9179 61.8544 48.9433 61.5194L48.9941 60.9287H47.215H45.436L45.3851 61.8721Z" fill="white"/>
<path d="M39.1962 64.8168C38.8744 64.852 38.5948 64.9049 38.5694 64.9314C38.4422 65.0549 39.2132 66.7918 39.6876 67.4796C39.9672 67.8676 40.5941 68.4231 40.7636 68.4231C40.7974 68.4231 40.8313 67.5854 40.8313 66.5715V64.7197L40.306 64.7286C40.0096 64.7374 39.5098 64.7727 39.1962 64.8168Z" fill="white"/>
<path d="M41.8513 66.5539C41.8513 67.5855 41.8852 68.4232 41.9275 68.4232C42.1309 68.4232 42.851 67.7001 43.2068 67.127C43.5627 66.5715 44.1387 65.2489 44.1387 65.002C44.1387 64.8874 43.7235 64.808 42.7239 64.7463L41.8513 64.6934V66.5539Z" fill="white"/>
<path d="M36.81 65.2487C35.5731 65.5838 35.4968 65.6103 35.4968 65.6896C35.4968 65.8306 36.6066 66.8447 37.2166 67.2591C37.7419 67.6206 39.0467 68.2466 39.2668 68.2466C39.2922 68.2466 39.1482 68.0085 38.9618 67.7088C38.5976 67.1622 37.9876 65.7777 37.8944 65.3192C37.869 65.187 37.8266 65.0548 37.7927 65.0372C37.7673 65.0195 37.3183 65.1164 36.81 65.2487Z" fill="white"/>
<path d="M44.7636 65.4516C44.5265 66.1923 44.0943 67.1358 43.7216 67.7089C43.5268 68.0086 43.3912 68.2467 43.4166 68.2467C43.6369 68.2467 44.933 67.6207 45.4668 67.2592C46.0683 66.8536 47.1866 65.8307 47.1866 65.6897C47.1866 65.6192 46.2547 65.3282 45.4329 65.1253L44.9076 65.002L44.7636 65.4516Z" fill="white"/>
<path d="M96.5348 34.6961C96.2214 36.0364 96.0604 36.6713 95.5013 38.664C95.1539 39.9249 94.7387 41.415 94.5778 41.9705C94.4253 42.526 94.3067 42.9934 94.3236 43.0022C94.3406 43.0198 95.3827 43.0198 96.6365 43.011L98.9324 42.9845L98.1276 40.163C97.687 38.6111 97.1618 36.6889 96.9584 35.8865C96.6534 34.6696 96.5857 34.4757 96.5348 34.6961Z" fill="white"/>
<path d="M111.59 37.624L111.615 40.0753L112.081 40.1018C112.801 40.1459 113.852 39.9695 114.335 39.7226C115.233 39.2641 115.588 38.1355 115.258 36.8128C114.952 35.6137 114.191 35.1816 112.369 35.1816H111.573L111.59 37.624Z" fill="white"/>
<path d="M172.725 39.2375C172.649 39.458 172.191 40.8511 171.692 42.3325C171.2 43.8225 170.793 45.0571 170.793 45.0923C170.793 45.1188 171.726 45.1452 172.861 45.1452H174.936L174.207 42.9585C173.809 41.7593 173.343 40.3485 173.175 39.8106L172.852 38.8496L172.725 39.2375Z" fill="white"/>
<path d="M156.219 40.0316V42.2448L157.939 42.2183C159.582 42.1919 159.667 42.183 160.031 41.9714C160.777 41.5306 161.15 40.5694 160.963 39.529C160.845 38.8501 160.548 38.4092 160.007 38.1182C159.573 37.8801 159.523 37.8713 157.896 37.8449L156.219 37.8096V40.0316Z" fill="white"/>
<path d="M84.5864 60.5667C83.9087 60.8841 83.3665 61.8364 83.3665 62.6917C83.3665 63.5646 83.9002 64.4904 84.595 64.8167C85.0862 65.0547 85.7641 65.0283 86.3062 64.7726C87.1026 64.3846 87.5093 63.5028 87.4076 62.3742C87.3483 61.7747 87.2804 61.5895 86.9416 61.1134C86.4842 60.4785 85.3404 60.2051 84.5864 60.5667Z" fill="white"/>
<path d="M136.934 60.6112C136.146 60.9991 135.731 61.8897 135.842 62.9742C135.901 63.6268 136.087 64.05 136.502 64.4555C137.214 65.1874 138.502 65.1609 139.23 64.4026C139.628 63.9883 139.823 63.4416 139.823 62.7362C139.823 61.9691 139.688 61.537 139.29 61.0785C138.688 60.3819 137.781 60.2055 136.934 60.6112Z" fill="white"/>
<path d="M56.2714 61.8274L56.2968 64.94L57.0592 64.9664C58.8723 65.028 59.8974 64.5255 60.4395 63.3175C60.5921 62.9736 60.6175 62.7444 60.6175 61.8538C60.6175 60.8751 60.6005 60.7605 60.3802 60.2931C59.8465 59.1645 58.9739 58.7236 57.2625 58.7236H56.2544L56.2714 61.8274Z" fill="white"/>
<path d="M105.325 60.6288C104.538 61.0345 104.224 61.784 104.309 63.0448C104.402 64.3321 105.19 65.0552 106.41 64.967C107.715 64.87 108.536 63.4945 108.189 61.9956C107.884 60.6641 106.511 60.0116 105.325 60.6288Z" fill="white"/>
<path d="M122.505 60.5847C121.743 60.9463 121.395 61.5018 121.336 62.4806C121.242 63.9882 122.065 64.9847 123.402 64.9847C124.784 64.9758 125.648 63.4592 125.225 61.828C125.089 61.3166 124.445 60.6288 123.987 60.4965C123.479 60.3556 122.929 60.382 122.505 60.5847Z" fill="white"/>
<path d="M155.067 60.6112C154.356 60.9551 153.932 61.7311 153.932 62.6921C153.932 64.0235 154.788 64.9847 155.957 64.9847C156.549 64.9847 157.015 64.7642 157.413 64.3057C157.804 63.8561 157.948 63.4151 157.948 62.6921C157.948 61.9691 157.804 61.5282 157.413 61.0786C156.813 60.382 155.906 60.2056 155.067 60.6112Z" fill="white"/>
<path d="M191.631 60.5933C191.183 60.8491 190.784 61.4134 190.725 61.9071L190.674 62.2511H192.564H194.453L194.402 61.9336C194.326 61.431 194.064 60.9989 193.673 60.708C193.359 60.4787 193.224 60.4434 192.665 60.417C192.106 60.3905 191.962 60.417 191.631 60.5933Z" fill="white"/>
<path d="M201.502 60.5489C200.935 60.8575 200.451 61.5453 200.443 62.0478V62.2507H202.308H204.171V62.0037C204.163 61.6864 203.908 61.1043 203.654 60.8663C203.544 60.7605 203.307 60.6106 203.138 60.5312C202.731 60.3548 201.833 60.3637 201.502 60.5489Z" fill="white"/>
<path d="M214.036 60.6111C213.29 60.9725 212.908 61.6779 212.908 62.692C212.908 63.7059 213.29 64.4113 214.036 64.7729C214.569 65.0285 215.255 65.0462 215.738 64.817C216.128 64.6318 216.594 64.1204 216.78 63.6707C216.958 63.2298 216.949 62.1276 216.763 61.6779C216.306 60.567 215.102 60.0908 214.036 60.6111Z" fill="white"/>
<path d="M221.149 60.5665C220.734 60.7693 220.244 61.3424 220.116 61.801C220.057 61.9861 220.014 62.3917 220.014 62.6915C220.014 63.4233 220.15 63.8466 220.515 64.2874C221.243 65.178 222.573 65.2398 223.352 64.4197C223.793 63.9612 223.997 63.3968 223.997 62.6034C223.997 61.607 223.445 60.7516 222.649 60.496C222.175 60.3549 221.547 60.3814 221.149 60.5665Z" fill="white"/>
<path d="M244.01 60.629C243.223 61.0347 242.909 61.7842 242.993 63.0451C243.079 64.2707 243.807 64.9849 244.968 64.9849C246.4 64.9849 247.298 63.4683 246.823 61.8195C246.484 60.6114 245.138 60.0471 244.01 60.629Z" fill="white"/>
</g>
</g>
<defs>
<clipPath id="clip0_9_1583">
<rect width="270" height="85" fill="white"/>
</clipPath>
</defs>
</svg>
